<svg id="Layer_16" data-name="Layer 16" xmlns="http://www.w3.org/2000/svg" viewBox="0 0 640 512"><defs><style>.cls-1{fill:#231f20;stroke:#a4a6aa;stroke-miterlimit:10;}</style></defs><title>plant-hand</title><path class="cls-1" d="M234,496H67.54C55.93,496,50,490.15,50,478.59q0-42.74,0-85.48c0-11,6-17.06,16.87-17.08,15.33,0,30.66-.06,46,0a10.48,10.48,0,0,0,7.25-2.49c15-12.22,29.81-24.59,45.15-36.31,17.7-13.52,38.06-20.81,60.27-21,51.48-.46,103-.29,154.46-.16,16.59,0,29.93,13.43,30,29.34.05,16.71-13.21,30.28-30.51,30.49-24.32.29-48.65.12-73,.08-5.11,0-9.42,1.42-12.74,5.53-3.64,4.52-5,9.36-2.58,14.83,2.58,5.77,6.93,9.56,13.4,9.58,38.32.1,76.65.28,115-.13,14.32-.15,26.55-6.66,37.58-15.6,26.52-21.49,53.18-42.81,79.71-64.29,10.86-8.79,22.72-12.94,36.06-6.82C592.15,328,597,355,577.75,370.44q-69.54,55.76-139.19,111.4A63,63,0,0,1,398,496.07Q316,495.92,234,496Z"/><path class="cls-1" d="M350,210.54c0,22.61,0,40.77,0,58.94,0,10.23-6.27,16.5-16.45,16.54-8.83,0-17.66,0-26.49,0-11,0-17-6-17-16.9q0-49,.05-98c0-3.55-.46-5.12-4.73-5.34-56.7-3-99.22-29.53-127.33-78.61C146.46,67,141.28,44.65,140,21.37c-.25-4.66,1.24-5.49,5.5-5.43,16.66.24,33.32.16,50,.08,46.1-.22,85.11,15.91,116.28,50.24,20.05,22.08,31.86,48,36.35,77.41C351.75,167.38,349.05,191.23,350,210.54Z"/><path class="cls-1" d="M462.46,16c12.47,0,22.8.13,33.12-.07,3.46-.07,4.58.87,4.46,4.45a146.3,146.3,0,0,1-20.26,70.68c-21.5,36.38-52.83,60.09-94,70.48-6.14,1.55-6.37,1.56-6.54-5.43-.4-16.28-3.85-32-8.88-47.33a167.53,167.53,0,0,0-26.43-50.07c-2.75-3.59-2.15-5.46,1.06-8.09,24-19.63,51.24-31,82.18-33.84C439.68,15.66,452.14,16.46,462.46,16Z"/></svg>