<?xml version="1.0" encoding="utf-8"?>
<!-- Generator: Adobe Illustrator 21.1.0, SVG Export Plug-In . SVG Version: 6.00 Build 0)  -->
<svg version="1.1" xmlns="http://www.w3.org/2000/svg" xmlns:xlink="http://www.w3.org/1999/xlink" x="0px" y="0px"
	 viewBox="0 0 512 512" style="enable-background:new 0 0 512 512;" xml:space="preserve">
<style type="text/css">
	.st0{fill:#FFFFFF;}
</style>
<g id="Layer_1" focusable="false">
	<path d="M310.3,92.2c0-4.5,0.3-9,0.8-13.4c-23.9,18.5-44,41.8-58.8,68.4c27.7,30.2,48.2,66.9,59,107.6
		c47.3-4.9,90.3-24.5,124.2-54.2c-5.1,0.7-10.3,1.1-15.7,1.1C359.3,201.7,310.3,152.7,310.3,92.2z"/>
	<path d="M64,96H0c0,123.7,100.3,224,224,224v144c0,8.8,7.2,16,16,16h32c8.8,0,16-7.2,16-16V320C288,196.3,187.7,96,64,96z"/>
	<path d="M512,32h-0.7c0.2,0.3,0.4,0.7,0.7,1C512,32.7,512,32.3,512,32z"/>
	<g>
		<path class="st0" d="M468.9,77.3h-34.2V43.1c0-2.5-2-4.5-4.5-4.5h-20.8c-2.5,0-4.5,2-4.5,4.5v34.2h-34.2c-2.5,0-4.5,2-4.5,4.5
			v20.8c0,2.5,2,4.5,4.5,4.5H405v34.2c0,2.5,2,4.5,4.5,4.5h20.8c2.5,0,4.5-2,4.5-4.5V107h34.2c2.5,0,4.5-2,4.5-4.5V81.8
			C473.3,79.3,471.3,77.3,468.9,77.3z"/>
		<path d="M419.8,0c-50.9,0-92.2,41.3-92.2,92.2s41.3,92.2,92.2,92.2S512,143.1,512,92.2S470.7,0,419.8,0z M473.3,102.6
			c0,2.5-2,4.5-4.5,4.5h-34.2v34.2c0,2.5-2,4.5-4.5,4.5h-20.8c-2.5,0-4.5-2-4.5-4.5V107h-34.2c-2.5,0-4.5-2-4.5-4.5V81.8
			c0-2.5,2-4.5,4.5-4.5H405V43.1c0-2.5,2-4.5,4.5-4.5h20.8c2.5,0,4.5,2,4.5,4.5v34.2h34.2c2.5,0,4.5,2,4.5,4.5V102.6z"/>
	</g>
</g>
<g id="Layer_2">
</g>
</svg>
