<?xml version="1.0" encoding="utf-8"?>
<!-- Generator: Adobe Illustrator 21.1.0, SVG Export Plug-In . SVG Version: 6.00 Build 0)  -->
<svg version="1.1" xmlns="http://www.w3.org/2000/svg" xmlns:xlink="http://www.w3.org/1999/xlink" x="0px" y="0px"
	 viewBox="0 0 640 512" style="enable-background:new 0 0 640 512;" xml:space="preserve">
<style type="text/css">
	.st0{display:none;}
	.st1{display:inline;}
	.st2{fill:#FFFFFF;}
	.st3{display:inline;fill:#5F266E;}
	.st4{display:inline;fill:#5F266D;}
	.st5{fill:#FFFFFF;stroke:#000000;stroke-miterlimit:10;}
</style>
<g id="Layer_1" focusable="false" class="st0">
	<path class="st1" d="M504,352H136.4c-4.4,0-8,3.6-8,8l-0.1,48c0,4.4,3.6,8,8,8H504c4.4,0,8-3.6,8-8v-48
		C512,355.6,508.4,352,504,352z M504,448H136.1c-4.4,0-8,3.6-8,8l-0.1,48c0,4.4,3.6,8,8,8h368c4.4,0,8-3.6,8-8v-48
		C512,451.6,508.4,448,504,448z M504,256H136.6c-4.4,0-8,3.6-8,8l-0.1,48c0,4.4,3.6,8,8,8H504c4.4,0,8-3.6,8-8v-48
		C512,259.6,508.4,256,504,256z M610.5,117L338.4,3.7c-11.8-4.9-25.1-4.9-36.9,0L29.5,117C11.7,124.5,0,141.9,0,161.3V504
		c0,4.4,3.6,8,8,8h80c4.4,0,8-3.6,8-8V256c0-17.6,14.6-32,32.6-32h382.8c18,0,32.6,14.4,32.6,32v248c0,4.4,3.6,8,8,8h80
		c4.4,0,8-3.6,8-8V161.3C640,141.9,628.3,124.5,610.5,117z"/>
</g>
<g id="Layer_8">
	<path d="M504,352H136.4c-4.4,0-8,3.6-8,8l-0.1,48c0,4.4,3.6,8,8,8H504c4.4,0,8-3.6,8-8v-48C512,355.6,508.4,352,504,352z"/>
	<path d="M504,448H136.1c-4.4,0-8,3.6-8,8l-0.1,48c0,4.4,3.6,8,8,8h368c4.4,0,8-3.6,8-8v-48C512,451.6,508.4,448,504,448z"/>
	<path d="M504,256H136.6c-4.4,0-8,3.6-8,8l-0.1,48c0,4.4,3.6,8,8,8H504c4.4,0,8-3.6,8-8v-48C512,259.6,508.4,256,504,256z"/>
	<path d="M547.8,201.7c-60.5,0-109.5-49-109.5-109.5c0-15.3,3.2-30,8.9-43.2L338.4,3.7c-11.8-4.9-25.1-4.9-36.9,0L29.5,117
		C11.7,124.5,0,141.9,0,161.3V504c0,4.4,3.6,8,8,8h80c4.4,0,8-3.6,8-8V256c0-17.6,14.6-32,32.6-32h382.8c18,0,32.6,14.4,32.6,32v248
		c0,4.4,3.6,8,8,8h80c4.4,0,8-3.6,8-8V161.3c0-3-0.3-5.9-0.8-8.7C619.6,182.2,586,201.7,547.8,201.7z"/>
</g>
<g id="Layer_9">
	<g>
		<path class="st2" d="M596.9,77.3h-34.2V43.1c0-2.5-2-4.5-4.5-4.5h-20.8c-2.5,0-4.5,2-4.5,4.5v34.2h-34.2c-2.5,0-4.5,2-4.5,4.5
			v20.8c0,2.5,2,4.5,4.5,4.5H533v34.2c0,2.5,2,4.5,4.5,4.5h20.8c2.5,0,4.5-2,4.5-4.5v-34.2h34.2c2.5,0,4.5-2,4.5-4.5V81.8
			C601.3,79.3,599.3,77.3,596.9,77.3z"/>
		<path d="M547.8,0c-50.9,0-92.2,41.3-92.2,92.2s41.3,92.2,92.2,92.2S640,143.1,640,92.2S598.7,0,547.8,0z M601.3,102.6
			c0,2.5-2,4.5-4.5,4.5h-34.2v34.2c0,2.5-2,4.5-4.5,4.5h-20.8c-2.5,0-4.5-2-4.5-4.5v-34.2h-34.2c-2.5,0-4.5-2-4.5-4.5V81.8
			c0-2.5,2-4.5,4.5-4.5H533V43.1c0-2.5,2-4.5,4.5-4.5h20.8c2.5,0,4.5,2,4.5,4.5v34.2h34.2c2.5,0,4.5,2,4.5,4.5V102.6z"/>
	</g>
</g>
<g id="Layer_4" class="st0">
	<path class="st3" d="M67.3,227.1c106.2,0,212.3,0,318.5,0c62.3,0,124.5,0,186.8,0c2.6,0.4,4.1,1.9,4.5,4.5c0,77.4,0,154.8,0,232.2
		c0.3,2.9,0.7,5.8,1,8.6c-0.2,0.6-0.5,1.3-0.7,1.9c-1.6,2.2-2.3,4.7-2.6,7.4c-5,16.6-15.8,27.4-32.4,32.4c-2.7,0.3-5.2,1-7.4,2.6
		c-0.7,0.2-1.5,0.5-2.2,0.7c-2.8-0.3-5.6-0.7-8.4-1c-136.3,0-272.6,0-408.9,0c-2.9,0.3-5.8,0.7-8.6,1c-0.6-0.2-1.3-0.5-1.9-0.7
		c-2.2-1.6-4.8-2.3-7.5-2.6c-16.5-5.1-27.4-15.8-32.4-32.4c-0.3-2.7-1-5.2-2.6-7.4c-0.2-0.6-0.5-1.3-0.7-1.9c0.3-2.9,0.7-5.8,1-8.6
		c0-77.4,0-154.8,0-232.2C63.2,229,64.7,227.5,67.3,227.1z"/>
	<path class="st4" d="M117,30.9c1.3-3.8,2.7-7.6,4-11.5c0.3,0.1,0.5,0.3,0.8,0.4c0.2,0.5,0.3,1.4,0.7,1.6c0.4,0.2,0.7-0.4,0.4-1
		l-0.1,0.1c3.3-0.6,4.4-3.8,6.6-5.8c5.3-4.9,11.8-7.5,18.4-10.7c-2.3-1.6-3.8-0.7-5.4,0.1c-1,0.5-2.1,0.4-2.9-0.5
		c-0.6-0.7-0.6-1.7-0.2-2.5c0.6-1.2,1.8-1.4,2.7-0.9c4.9,2.4,10.1,0.7,15.2,1.4c0.4,2.8,1.7,4.7,4.8,4.7c2.7,0,4.3-1.3,4.9-4
		c39.6,0,79.2-0.1,118.8-0.1c4.6,0,9.3-0.1,13.9-0.1l0.2,0.2c0.3,2.5,1.6,3.8,4.1,4.1l0.2,0.2c0,61.4,0,122.7,0,184.1l-0.2,0.2
		c-2.5,0.3-3.8,1.6-4.1,4.1l-0.2,0.2c-77.1,0-154.1,0-231.2,0c0.1-4.1,2.4-8.5-1.5-12.1C82,137.8,97.1,92.6,112.1,47.3
		c1.1-3.2,2.7-6.1,0.4-10c-1.3-2.3-1.5-6.7,3.9-6.2c-0.2,0.9-0.4,1.7-0.5,2.6c-0.2,1.7-0.6,3.6,1.2,4.8c1.1,0.7,2.1,0.2,2.7-0.8
		c1.1-1.9,0.8-3.8-0.7-5.4C118.6,31.7,117.7,31.3,117,30.9z"/>
	<path class="st4" d="M519,19.4c1.3,3.8,2.7,7.6,4,11.5c-0.5,0.3-1,0.5-1.4,0.8c-2.2,1.6-2.7,3.6-1.5,6c0.4,0.8,1.3,1.4,2.2,1
		c2.6-1.2,1.8-3.5,1.6-5.5c-0.1-0.7-0.3-1.4-0.4-2.1c5.9-0.4,5.1,4.3,3.8,6.7c-1.7,3.1-0.8,5.3,0,7.9
		c15.3,45.8,30.5,91.6,45.8,137.4c-3.9,3.6-1.6,8-1.5,12.1c-28.2,0-56.4-0.1-84.5-0.1c-48.9,0-97.7,0-146.6,0.1l-0.2-0.2
		c-0.3-2.5-1.6-3.8-4.1-4.1l-0.2-0.2c0-61.4,0-122.7,0-184.1l0.2-0.2c2.5-0.3,3.8-1.6,4.1-4.1l0.2-0.2c41.4,0,82.8,0.1,124.2,0.1
		c2.9,0,5.7,0.1,8.6,0.1c0.5,2.9,2.3,4.1,5.2,4c3-0.1,4.2-2,4.4-4.8c5.5,0,11.1,0,17.3,0c-2.6,2.7-5.3,0.6-7.8,2.4
		c3.4,1.7,6.4,3.3,9.6,4.7c6.2,2.6,9.7,8.6,15.3,11.9c0,0-0.1-0.1-0.1-0.1c-0.3,0.6,0,1.2,0.4,1c0.4-0.2,0.5-1,0.7-1.6
		C518.5,19.7,518.8,19.6,519,19.4z"/>
</g>
<g id="Layer_5" class="st0">
	<path class="st1" d="M157.2,0l139.8,0c3.9,0,7.1,3.2,7.1,7.1v179.5c0,3.9-3.2,7.1-7.1,7.1H74c-3.9,0-7.1-3.2-7.1-7.1L121,17.9
		C127.4-1.5,153.3,0,157.2,0z"/>
	<path class="st1" d="M482.8,0L343.1,0c-3.9,0-7.1,3.2-7.1,7.1v179.5c0,3.9,3.2,7.1,7.1,7.1h223c3.9,0,7.1-3.2,7.1-7.1L519,17.9
		C512.6-1.5,486.7,0,482.8,0z"/>
	<path class="st1" d="M535.6,512H105.4c-23.4,0-42.5-19.1-42.5-42.5V234.2c0-3.9,3.2-7.1,7.1-7.1h501.1c3.9,0,7.1,3.2,7.1,7.1v235.3
		C578.2,492.9,559,512,535.6,512z"/>
</g>
<g id="Layer_6" class="st0">
	
		<image style="display:inline;overflow:visible;" width="720" height="600" xlink:href="E0BAFA8B.jpg"  transform="matrix(1 0 0 1 -40 -43.72)">
	</image>
</g>
<g id="Layer_7" class="st0">
	<g class="st1">
		<path d="M596.9,77.3h-34.2V43.1c0-2.5-2-4.5-4.5-4.5h-20.8c-2.5,0-4.5,2-4.5,4.5v34.2h-34.2c-2.5,0-4.5,2-4.5,4.5v20.8
			c0,2.5,2,4.5,4.5,4.5H533v34.2c0,2.5,2,4.5,4.5,4.5h20.8c2.5,0,4.5-2,4.5-4.5v-34.2h34.2c2.5,0,4.5-2,4.5-4.5V81.8
			C601.3,79.3,599.3,77.3,596.9,77.3z"/>
		<path class="st5" d="M547.8,0c-50.9,0-92.2,41.3-92.2,92.2s41.3,92.2,92.2,92.2S640,143.1,640,92.2S598.7,0,547.8,0z M601.3,102.6
			c0,2.5-2,4.5-4.5,4.5h-34.2v34.2c0,2.5-2,4.5-4.5,4.5h-20.8c-2.5,0-4.5-2-4.5-4.5v-34.2h-34.2c-2.5,0-4.5-2-4.5-4.5V81.8
			c0-2.5,2-4.5,4.5-4.5H533V43.1c0-2.5,2-4.5,4.5-4.5h20.8c2.5,0,4.5,2,4.5,4.5v34.2h34.2c2.5,0,4.5,2,4.5,4.5V102.6z"/>
	</g>
</g>
<g id="Layer_3" class="st0">
	<path class="st1" d="M217.7,383.8H104.2c-3.9,0-7.1-3.2-7.1-7.1V262.2c0-3.9,3.2-7.1,7.1-7.1h113.5c3.9,0,7.1,3.2,7.1,7.1v114.4
		C224.8,380.6,221.6,383.8,217.7,383.8z"/>
	<path class="st1" d="M377.7,383.8H264.2c-3.9,0-7.1-3.2-7.1-7.1V262.2c0-3.9,3.2-7.1,7.1-7.1h113.5c3.9,0,7.1,3.2,7.1,7.1v114.4
		C384.8,380.6,381.6,383.8,377.7,383.8z"/>
	<path class="st1" d="M477.7,128.6H364.2c-3.9,0-7.1-3.2-7.1-7.1V7.1c0-3.9,3.2-7.1,7.1-7.1h113.5c3.9,0,7.1,3.2,7.1,7.1v114.4
		C484.8,125.4,481.6,128.6,477.7,128.6z"/>
	<path class="st1" d="M632.9,0.6h-53.5c-3.9,0-7.1,3.2-7.1,7.1v152.2H67.7V7.7c0-3.9-3.2-7.1-7.1-7.1H7.1C3.2,0.6,0,3.8,0,7.7v497.2
		c0,3.9,3.2,7.1,7.1,7.1h53.5c3.9,0,7.1-3.2,7.1-7.1v-22.8h504.7v22.8c0,3.9,3.2,7.1,7.1,7.1h53.5c3.9,0,7.1-3.2,7.1-7.1V7.7
		C640,3.8,636.8,0.6,632.9,0.6z M67.7,414.4V227.6h504.7v186.9H67.7z"/>
</g>
</svg>
