<?xml version="1.0" encoding="utf-8"?>
<!-- Generator: Adobe Illustrator 21.1.0, SVG Export Plug-In . SVG Version: 6.00 Build 0)  -->
<svg version="1.1" xmlns="http://www.w3.org/2000/svg" xmlns:xlink="http://www.w3.org/1999/xlink" x="0px" y="0px"
	 viewBox="0 0 640 512" style="enable-background:new 0 0 640 512;" xml:space="preserve">
<style type="text/css">
	.st0{display:none;}
	.st1{display:inline;fill:#7E3F0A;}
	.st2{display:inline;}
</style>
<g id="Layer_1" focusable="false">
	<path d="M504,352H136.4c-4.4,0-8,3.6-8,8l-0.1,48c0,4.4,3.6,8,8,8H504c4.4,0,8-3.6,8-8v-48C512,355.6,508.4,352,504,352z M504,448
		H136.1c-4.4,0-8,3.6-8,8l-0.1,48c0,4.4,3.6,8,8,8h368c4.4,0,8-3.6,8-8v-48C512,451.6,508.4,448,504,448z M504,256H136.6
		c-4.4,0-8,3.6-8,8l-0.1,48c0,4.4,3.6,8,8,8H504c4.4,0,8-3.6,8-8v-48C512,259.6,508.4,256,504,256z M610.5,117L338.4,3.7
		c-11.8-4.9-25.1-4.9-36.9,0L29.5,117C11.7,124.5,0,141.9,0,161.3V504c0,4.4,3.6,8,8,8h80c4.4,0,8-3.6,8-8V256
		c0-17.6,14.6-32,32.6-32h382.8c18,0,32.6,14.4,32.6,32v248c0,4.4,3.6,8,8,8h80c4.4,0,8-3.6,8-8V161.3
		C640,141.9,628.3,124.5,610.5,117z"/>
</g>
<g id="Layer_2" class="st0">
	<path class="st1" d="M69.9,161.8c2.8,0,5.6,0.1,8.5,0.1c161,0,322,0,483,0c2.8,0,5.6-0.1,8.5-0.1c0.1,0.1,0.3,0.3,0.4,0.4
		c0,3.1,1.9,3.9,4.5,3.7c2-0.2,3.2-1.3,3.4-3.4c0.2-2.7-0.6-4.5-3.6-4.5c-0.1-0.1-0.3-0.3-0.4-0.4c0-44.8,0-89.7,0-134.5
		c0.1-0.1,0.3-0.3,0.4-0.4c2.9,0,3.8-1.7,3.7-4.3c-0.2-2.9-1.9-3.7-4.5-3.3c-0.2-0.2-0.3-0.3-0.5-0.5c0.3-1.3-0.6-2.3-0.9-3.5
		c-0.5-2.7,0.7-3.8,3.3-2.7c3,1.3,4.9-1.4,4.5-2.6c-3-9.1,3.6-3.1,5.8-3.9c0.2,0.2,0.3,0.3,0.5,0.5c-0.4,2.6,0.4,4.4,3.3,4.5
		c2.6,0.1,4.3-0.8,4.3-3.7c0.1-0.1,0.3-0.3,0.4-0.4c7.7,0,15.4,0,23.1,0c0.1,0.1,0.3,0.3,0.4,0.4c0,2.9,1.7,3.8,4.3,3.7
		c2.9-0.2,3.7-1.9,3.3-4.5c0.2-0.2,0.3-0.3,0.5-0.5c1.3,0.3,2.3-0.7,3.5-0.9c2.7-0.5,3.8,0.8,2.7,3.3c-1.3,3,1.4,4.9,2.6,4.5
		c9.1-3,3.1,3.6,3.9,5.8c-0.2,0.2-0.3,0.3-0.5,0.5c-2.6-0.4-4.4,0.4-4.5,3.3c-0.1,2.6,0.8,4.3,3.7,4.3c0.1,0.1,0.3,0.3,0.4,0.4
		c0,2.6-0.1,5.3-0.1,7.9c0,156.2,0,312.4,0,468.6c0,2.6,0.1,5.3,0.1,7.9c-0.1,0.1-0.3,0.3-0.4,0.4c-2.5-0.1-3.7,1.1-3.6,3.6
		c-0.1,0.1-0.3,0.3-0.4,0.4c-18.3,0-36.6,0-54.9,0c-0.1-0.1-0.3-0.3-0.4-0.4c0.1-2.5-1.1-3.7-3.6-3.6c-0.1-0.1-0.3-0.3-0.4-0.4
		c0-7.7,0-15.4,0-23.2c0.1-0.1,0.3-0.3,0.4-0.4c3.1,0,3.9-1.9,3.6-4.5c-0.2-2-1.3-3.2-3.4-3.4c-2.7-0.2-4.5,0.6-4.5,3.7
		c-0.1,0.1-0.3,0.3-0.4,0.4c-2.8,0-5.6-0.1-8.5-0.1c-161,0-322,0-483,0c-2.8,0-5.6,0.1-8.5,0.1c-0.1-0.1-0.3-0.3-0.4-0.4
		c0-3.1-1.9-3.9-4.5-3.7c-2,0.2-3.2,1.3-3.4,3.4c-0.2,2.7,0.6,4.5,3.6,4.5c0.1,0.1,0.3,0.3,0.4,0.4c0,7.7,0,15.4,0,23.2
		c-0.1,0.1-0.3,0.3-0.4,0.4c-2.5-0.1-3.7,1.1-3.6,3.6c-0.1,0.1-0.3,0.3-0.4,0.4c-18.3,0-36.6,0-54.9,0c-0.1-0.1-0.3-0.3-0.4-0.4
		c0.1-2.5-1.1-3.7-3.6-3.6c-0.1-0.1-0.3-0.3-0.4-0.4c0-2.8,0.1-5.7,0.1-8.5C2,343.3,2,187.4,2,31.6c0-2.8-0.1-5.7-0.1-8.5
		c0.1-0.1,0.3-0.3,0.4-0.4c2.9,0,3.8-1.7,3.7-4.3c-0.2-2.9-1.9-3.7-4.5-3.3c-0.2-0.2-0.3-0.3-0.5-0.5c0.3-1.3-0.6-2.3-0.9-3.5
		c-0.5-2.7,0.7-3.8,3.3-2.7c3,1.3,4.9-1.4,4.5-2.6c-3-9.1,3.6-3.1,5.8-3.9c0.2,0.2,0.3,0.3,0.5,0.5c-0.4,2.6,0.4,4.4,3.3,4.5
		c2.6,0.1,4.3-0.8,4.3-3.7C22,3,22.1,2.9,22.2,2.8c7.7,0,15.4,0,23.1,0c0.1,0.1,0.3,0.3,0.4,0.4c0,2.9,1.7,3.8,4.3,3.7
		c2.9-0.2,3.7-1.9,3.3-4.5c0.2-0.2,0.3-0.3,0.5-0.5c1.3,0.3,2.3-0.7,3.5-0.9c2.7-0.5,3.8,0.8,2.7,3.3c-1.3,3,1.4,4.9,2.6,4.5
		c9.1-3,3.1,3.6,3.9,5.8c-0.2,0.2-0.3,0.3-0.5,0.5c-2.6-0.4-4.4,0.4-4.5,3.3c-0.1,2.6,0.8,4.3,3.7,4.3c0.1,0.1,0.3,0.3,0.4,0.4
		c0,44.8,0,89.7,0,134.5c-0.1,0.1-0.3,0.3-0.4,0.4c-3.1,0-3.9,1.9-3.6,4.5c0.2,2,1.3,3.2,3.4,3.4c2.7,0.2,4.5-0.6,4.5-3.7
		C69.7,162.1,69.8,162,69.9,161.8z M570,416.5c0.3,2.7,1.7,4.1,4.5,4c2.3-0.2,3.5-1.4,3.7-3.7c0.2-2.8-1.2-4.2-4-4.5
		c0-60.8,0-121.6,0-182.5c2.7-0.3,4.1-1.7,4-4.5c-0.2-2.3-1.4-3.5-3.7-3.7c-2.8-0.2-4.2,1.2-4.5,4c-166.7,0-333.4,0-500.2,0
		c-0.3-2.7-1.7-4.1-4.5-4c-2.3,0.2-3.5,1.4-3.7,3.7c-0.2,2.8,1.2,4.2,4,4.5c0,60.8,0,121.6,0,182.5c-2.7,0.3-4.1,1.7-4,4.5
		c0.2,2.3,1.4,3.5,3.7,3.7c2.8,0.2,4.2-1.2,4.5-4C236.5,416.5,403.3,416.5,570,416.5z"/>
	<path class="st1" d="M351.6,109.9c0-28.9,0-57.9,0-86.8c0.1-0.1,0.3-0.3,0.4-0.4c2.9,0,3.8-1.7,3.7-4.3c-0.2-2.9-1.9-3.7-4.5-3.3
		c-0.2-0.2-0.3-0.3-0.5-0.5c0.3-1.3-0.7-2.3-0.9-3.5c-0.5-2.7,0.7-3.8,3.2-2.7c3,1.3,4.9-1.4,4.5-2.6c-2.9-9.1,3.6-3.1,5.8-3.9
		c0.2,0.2,0.3,0.3,0.5,0.5c-0.4,2.6,0.4,4.4,3.3,4.5c2.6,0.1,4.3-0.8,4.3-3.7c0.1-0.1,0.3-0.3,0.4-0.4c28.9,0,57.8,0,86.7,0
		c0.1,0.1,0.3,0.3,0.4,0.4c0,2.9,1.7,3.8,4.3,3.7c2.9-0.2,3.7-1.9,3.3-4.5c0.2-0.2,0.3-0.3,0.5-0.5c1.3,0.3,2.3-0.7,3.5-0.9
		c2.7-0.5,3.8,0.7,2.7,3.3c-1.3,3,1.4,4.9,2.6,4.5c9.1-3,3.1,3.6,3.9,5.8c-0.2,0.2-0.3,0.3-0.5,0.5c-2.6-0.4-4.4,0.4-4.5,3.3
		c-0.1,2.6,0.8,4.3,3.7,4.3c0.1,0.1,0.3,0.3,0.4,0.4c0,28.9,0,57.9,0,86.8c-0.1,0.1-0.3,0.3-0.4,0.4c-2.9,0-3.8,1.7-3.7,4.3
		c0.2,2.9,1.9,3.7,4.5,3.3c0.2,0.2,0.3,0.3,0.5,0.5c-0.3,1.3,0.7,2.3,0.9,3.5c0.5,2.7-0.8,3.9-3.2,2.7c-3.1-1.5-4.8,1.5-4.5,2.6
		c2.8,8.9-3.6,3.2-5.9,3.9c-0.2-0.2-0.3-0.3-0.5-0.5c0.4-2.6-0.4-4.4-3.3-4.5c-2.6-0.1-4.3,0.8-4.3,3.7c-0.1,0.1-0.3,0.3-0.4,0.4
		c-28.9,0-57.8,0-86.7,0c-0.1-0.1-0.3-0.3-0.4-0.4c0-2.9-1.7-3.8-4.3-3.7c-2.9,0.2-3.7,1.9-3.3,4.5c-0.2,0.2-0.3,0.3-0.5,0.5
		c-1.3-0.3-2.3,0.7-3.5,0.9c-2.7,0.5-3.9-0.8-2.7-3.2c1.5-3.1-1.5-4.8-2.6-4.5c-8.9,2.8-3.2-3.6-3.9-5.9c0.2-0.2,0.3-0.3,0.5-0.5
		c2.6,0.4,4.4-0.4,4.5-3.3c0.1-2.6-0.8-4.3-3.7-4.3C351.9,110.1,351.7,110,351.6,109.9z"/>
	<path class="st1" d="M212.8,256.3c1.3,0.3,2.3-0.7,3.5-0.9c2.7-0.5,3.8,0.7,2.7,3.3c-1.3,3,1.4,4.9,2.6,4.5c9.1-3,3.1,3.6,3.9,5.8
		c-0.2,0.2-0.3,0.3-0.5,0.5c-2.6-0.4-4.4,0.4-4.5,3.3c-0.1,2.6,0.8,4.3,3.7,4.3c0.1,0.1,0.3,0.3,0.4,0.4c0,28.9,0,57.9,0,86.8
		c-0.1,0.1-0.3,0.3-0.4,0.4c-2.9,0-3.8,1.7-3.7,4.3c0.2,2.9,1.9,3.7,4.5,3.3c0.2,0.2,0.3,0.3,0.5,0.5c-0.3,1.3,0.7,2.3,0.9,3.5
		c0.5,2.7-0.8,3.9-3.2,2.7c-3.1-1.5-4.8,1.5-4.5,2.6c2.8,8.9-3.6,3.2-5.9,3.9c-0.2-0.2-0.3-0.3-0.5-0.5c0.4-2.6-0.4-4.4-3.3-4.5
		c-2.6-0.1-4.3,0.8-4.3,3.7c-0.1,0.1-0.3,0.3-0.4,0.4c-28.9,0-57.8,0-86.7,0c-0.1-0.1-0.3-0.3-0.4-0.4c0-2.9-1.7-3.8-4.3-3.7
		c-2.9,0.2-3.7,1.9-3.3,4.5c-0.2,0.2-0.3,0.3-0.5,0.5c-1.3-0.3-2.3,0.7-3.5,0.9c-2.7,0.5-3.9-0.8-2.7-3.2c1.5-3.1-1.5-4.8-2.6-4.5
		c-8.9,2.8-3.2-3.6-3.9-5.9c0.2-0.2,0.3-0.3,0.5-0.5c2.6,0.4,4.4-0.4,4.5-3.3c0.1-2.6-0.8-4.3-3.7-4.3c-0.1-0.1-0.3-0.3-0.4-0.4
		c0-28.9,0-57.9,0-86.8c0.1-0.1,0.3-0.3,0.4-0.4c2.9,0,3.8-1.7,3.7-4.3c-0.2-2.9-1.9-3.7-4.5-3.3c-0.2-0.2-0.3-0.3-0.5-0.5
		c0.3-1.3-0.7-2.3-0.9-3.5c-0.5-2.7,0.7-3.8,3.2-2.7c3,1.3,4.9-1.4,4.5-2.6c-2.9-9.1,3.6-3.1,5.8-3.9c0.2,0.2,0.3,0.3,0.5,0.5
		c-0.4,2.6,0.4,4.4,3.3,4.5c2.6,0.1,4.3-0.8,4.3-3.7c0.1-0.1,0.3-0.3,0.4-0.4c28.9,0,57.8,0,86.7,0c0.1,0.1,0.3,0.3,0.4,0.4
		c0,2.9,1.7,3.8,4.3,3.7c2.9-0.2,3.7-1.9,3.3-4.5C212.5,256.7,212.7,256.5,212.8,256.3z"/>
	<path class="st1" d="M384.5,372.9c-0.3,1.3,0.7,2.3,0.9,3.5c0.5,2.7-0.8,3.9-3.2,2.7c-3.1-1.5-4.8,1.5-4.5,2.6
		c2.8,8.9-3.6,3.2-5.9,3.9c-0.2-0.2-0.3-0.3-0.5-0.5c0.4-2.6-0.4-4.4-3.3-4.5c-2.6-0.1-4.3,0.8-4.3,3.7c-0.1,0.1-0.3,0.3-0.4,0.4
		c-28.9,0-57.8,0-86.7,0c-0.1-0.1-0.3-0.3-0.4-0.4c0-2.9-1.7-3.8-4.3-3.7c-2.9,0.2-3.7,1.9-3.3,4.5c-0.2,0.2-0.3,0.3-0.5,0.5
		c-1.3-0.3-2.3,0.7-3.5,0.9c-2.7,0.5-3.9-0.8-2.7-3.2c1.5-3.1-1.5-4.8-2.6-4.5c-8.9,2.8-3.2-3.6-3.9-5.9c0.2-0.2,0.3-0.3,0.5-0.5
		c2.6,0.4,4.4-0.4,4.5-3.3c0.1-2.6-0.8-4.3-3.7-4.3c-0.1-0.1-0.3-0.3-0.4-0.4c0-28.9,0-57.9,0-86.8c0.1-0.1,0.3-0.3,0.4-0.4
		c2.9,0,3.8-1.7,3.7-4.3c-0.2-2.9-1.9-3.7-4.5-3.3c-0.2-0.2-0.3-0.3-0.5-0.5c0.3-1.3-0.7-2.3-0.9-3.5c-0.5-2.7,0.7-3.8,3.2-2.7
		c3,1.3,4.9-1.4,4.5-2.6c-2.9-9.1,3.6-3.1,5.8-3.9c0.2,0.2,0.3,0.3,0.5,0.5c-0.4,2.6,0.4,4.4,3.3,4.5c2.6,0.1,4.3-0.8,4.3-3.7
		c0.1-0.1,0.3-0.3,0.4-0.4c28.9,0,57.8,0,86.7,0c0.1,0.1,0.3,0.3,0.4,0.4c0,2.9,1.7,3.8,4.3,3.7c2.9-0.2,3.7-1.9,3.3-4.5
		c0.2-0.2,0.3-0.3,0.5-0.5c1.3,0.3,2.3-0.7,3.5-0.9c2.7-0.5,3.8,0.7,2.7,3.3c-1.3,3,1.4,4.9,2.6,4.5c9.1-3,3.1,3.6,3.9,5.8
		c-0.2,0.2-0.3,0.3-0.5,0.5c-2.6-0.4-4.4,0.4-4.5,3.3c-0.1,2.6,0.8,4.3,3.7,4.3c0.1,0.1,0.3,0.3,0.4,0.4c0,28.9,0,57.9,0,86.8
		c-0.1,0.1-0.3,0.3-0.4,0.4c-2.9,0-3.8,1.7-3.7,4.3c0.2,2.9,1.9,3.7,4.5,3.3C384.2,372.6,384.3,372.8,384.5,372.9z"/>
</g>
<g id="Layer_3" class="st0">
	<path class="st2" d="M217.7,383.8H104.2c-3.9,0-7.1-3.2-7.1-7.1V262.2c0-3.9,3.2-7.1,7.1-7.1h113.5c3.9,0,7.1,3.2,7.1,7.1v114.4
		C224.8,380.6,221.6,383.8,217.7,383.8z"/>
	<path class="st2" d="M377.7,383.8H264.2c-3.9,0-7.1-3.2-7.1-7.1V262.2c0-3.9,3.2-7.1,7.1-7.1h113.5c3.9,0,7.1,3.2,7.1,7.1v114.4
		C384.8,380.6,381.6,383.8,377.7,383.8z"/>
	<path class="st2" d="M477.7,128.6H364.2c-3.9,0-7.1-3.2-7.1-7.1V7.1c0-3.9,3.2-7.1,7.1-7.1h113.5c3.9,0,7.1,3.2,7.1,7.1v114.4
		C484.8,125.4,481.6,128.6,477.7,128.6z"/>
	<path class="st2" d="M632.9,0.6h-53.5c-3.9,0-7.1,3.2-7.1,7.1v152.2H67.7V7.7c0-3.9-3.2-7.1-7.1-7.1H7.1C3.2,0.6,0,3.8,0,7.7v497.2
		c0,3.9,3.2,7.1,7.1,7.1h53.5c3.9,0,7.1-3.2,7.1-7.1v-22.8h504.7v22.8c0,3.9,3.2,7.1,7.1,7.1h53.5c3.9,0,7.1-3.2,7.1-7.1V7.7
		C640,3.8,636.8,0.6,632.9,0.6z M67.7,414.4V227.6h504.7v186.9H67.7z"/>
</g>
</svg>
