<?xml version="1.0" encoding="utf-8"?>
<!-- Generator: Adobe Illustrator 21.1.0, SVG Export Plug-In . SVG Version: 6.00 Build 0)  -->
<svg version="1.1" xmlns="http://www.w3.org/2000/svg" xmlns:xlink="http://www.w3.org/1999/xlink" x="0px" y="0px"
	 viewBox="0 0 640 512" style="enable-background:new 0 0 640 512;" xml:space="preserve">
<style type="text/css">
	.st0{display:none;}
	.st1{display:inline;}
	.st2{display:inline;fill:#5F266E;}
	.st3{display:inline;fill:#5F266D;}
	.st4{fill:#FFFFFF;}
	.st5{fill:#7E3F0A;}
	.st6{fill:#A04F0D;}
	.st7{fill:#FFFFFF;stroke:#000000;stroke-miterlimit:10;}
	.st8{display:inline;fill:none;}
	.st9{display:inline;fill:#FFFFFF;}
	.st10{fill:none;}
	.st11{display:inline;fill:none;stroke:#000000;stroke-width:13.6367;stroke-miterlimit:10;}
</style>
<g id="Layer_1" focusable="false" class="st0">
	<path class="st1" d="M504,352H136.4c-4.4,0-8,3.6-8,8l-0.1,48c0,4.4,3.6,8,8,8H504c4.4,0,8-3.6,8-8v-48
		C512,355.6,508.4,352,504,352z M504,448H136.1c-4.4,0-8,3.6-8,8l-0.1,48c0,4.4,3.6,8,8,8h368c4.4,0,8-3.6,8-8v-48
		C512,451.6,508.4,448,504,448z M504,256H136.6c-4.4,0-8,3.6-8,8l-0.1,48c0,4.4,3.6,8,8,8H504c4.4,0,8-3.6,8-8v-48
		C512,259.6,508.4,256,504,256z M610.5,117L338.4,3.7c-11.8-4.9-25.1-4.9-36.9,0L29.5,117C11.7,124.5,0,141.9,0,161.3V504
		c0,4.4,3.6,8,8,8h80c4.4,0,8-3.6,8-8V256c0-17.6,14.6-32,32.6-32h382.8c18,0,32.6,14.4,32.6,32v248c0,4.4,3.6,8,8,8h80
		c4.4,0,8-3.6,8-8V161.3C640,141.9,628.3,124.5,610.5,117z"/>
</g>
<g id="Layer_8" class="st0">
	<path class="st1" d="M504,352H136.4c-4.4,0-8,3.6-8,8l-0.1,48c0,4.4,3.6,8,8,8H504c4.4,0,8-3.6,8-8v-48
		C512,355.6,508.4,352,504,352z"/>
	<path class="st1" d="M504,448H136.1c-4.4,0-8,3.6-8,8l-0.1,48c0,4.4,3.6,8,8,8h368c4.4,0,8-3.6,8-8v-48
		C512,451.6,508.4,448,504,448z"/>
	<path class="st1" d="M504,256H136.6c-4.4,0-8,3.6-8,8l-0.1,48c0,4.4,3.6,8,8,8H504c4.4,0,8-3.6,8-8v-48
		C512,259.6,508.4,256,504,256z"/>
	<path class="st1" d="M547.8,201.7c-60.5,0-109.5-49-109.5-109.5c0-15.3,3.2-30,8.9-43.2L338.4,3.7c-11.8-4.9-25.1-4.9-36.9,0
		L29.5,117C11.7,124.5,0,141.9,0,161.3V504c0,4.4,3.6,8,8,8h80c4.4,0,8-3.6,8-8V256c0-17.6,14.6-32,32.6-32h382.8
		c18,0,32.6,14.4,32.6,32v248c0,4.4,3.6,8,8,8h80c4.4,0,8-3.6,8-8V161.3c0-3-0.3-5.9-0.8-8.7C619.6,182.2,586,201.7,547.8,201.7z"/>
</g>
<g id="Layer_4" class="st0">
	<path class="st2" d="M67.3,227.1c106.2,0,212.3,0,318.5,0c62.3,0,124.5,0,186.8,0c2.6,0.4,4.1,1.9,4.5,4.5c0,77.4,0,154.8,0,232.2
		c0.3,2.9,0.7,5.8,1,8.6c-0.2,0.6-0.5,1.3-0.7,1.9c-1.6,2.2-2.3,4.7-2.6,7.4c-5,16.6-15.8,27.4-32.4,32.4c-2.7,0.3-5.2,1-7.4,2.6
		c-0.7,0.2-1.5,0.5-2.2,0.7c-2.8-0.3-5.6-0.7-8.4-1c-136.3,0-272.6,0-408.9,0c-2.9,0.3-5.8,0.7-8.6,1c-0.6-0.2-1.3-0.5-1.9-0.7
		c-2.2-1.6-4.8-2.3-7.5-2.6c-16.5-5.1-27.4-15.8-32.4-32.4c-0.3-2.7-1-5.2-2.6-7.4c-0.2-0.6-0.5-1.3-0.7-1.9c0.3-2.9,0.7-5.8,1-8.6
		c0-77.4,0-154.8,0-232.2C63.2,229,64.7,227.5,67.3,227.1z"/>
	<path class="st3" d="M117,30.9c1.3-3.8,2.7-7.6,4-11.5c0.3,0.1,0.5,0.3,0.8,0.4c0.2,0.5,0.3,1.4,0.7,1.6c0.4,0.2,0.7-0.4,0.4-1
		l-0.1,0.1c3.3-0.6,4.4-3.8,6.6-5.8c5.3-4.9,11.8-7.5,18.4-10.7c-2.3-1.6-3.8-0.7-5.4,0.1c-1,0.5-2.1,0.4-2.9-0.5
		c-0.6-0.7-0.6-1.7-0.2-2.5c0.6-1.2,1.8-1.4,2.7-0.9c4.9,2.4,10.1,0.7,15.2,1.4c0.4,2.8,1.7,4.7,4.8,4.7c2.7,0,4.3-1.3,4.9-4
		c39.6,0,79.2-0.1,118.8-0.1c4.6,0,9.3-0.1,13.9-0.1l0.2,0.2c0.3,2.5,1.6,3.8,4.1,4.1l0.2,0.2c0,61.4,0,122.7,0,184.1l-0.2,0.2
		c-2.5,0.3-3.8,1.6-4.1,4.1l-0.2,0.2c-77.1,0-154.1,0-231.2,0c0.1-4.1,2.4-8.5-1.5-12.1C82,137.8,97.1,92.6,112.1,47.3
		c1.1-3.2,2.7-6.1,0.4-10c-1.3-2.3-1.5-6.7,3.9-6.2c-0.2,0.9-0.4,1.7-0.5,2.6c-0.2,1.7-0.6,3.6,1.2,4.8c1.1,0.7,2.1,0.2,2.7-0.8
		c1.1-1.9,0.8-3.8-0.7-5.4C118.6,31.7,117.7,31.3,117,30.9z"/>
	<path class="st3" d="M519,19.4c1.3,3.8,2.7,7.6,4,11.5c-0.5,0.3-1,0.5-1.4,0.8c-2.2,1.6-2.7,3.6-1.5,6c0.4,0.8,1.3,1.4,2.2,1
		c2.6-1.2,1.8-3.5,1.6-5.5c-0.1-0.7-0.3-1.4-0.4-2.1c5.9-0.4,5.1,4.3,3.8,6.7c-1.7,3.1-0.8,5.3,0,7.9
		c15.3,45.8,30.5,91.6,45.8,137.4c-3.9,3.6-1.6,8-1.5,12.1c-28.2,0-56.4-0.1-84.5-0.1c-48.9,0-97.7,0-146.6,0.1l-0.2-0.2
		c-0.3-2.5-1.6-3.8-4.1-4.1l-0.2-0.2c0-61.4,0-122.7,0-184.1l0.2-0.2c2.5-0.3,3.8-1.6,4.1-4.1l0.2-0.2c41.4,0,82.8,0.1,124.2,0.1
		c2.9,0,5.7,0.1,8.6,0.1c0.5,2.9,2.3,4.1,5.2,4c3-0.1,4.2-2,4.4-4.8c5.5,0,11.1,0,17.3,0c-2.6,2.7-5.3,0.6-7.8,2.4
		c3.4,1.7,6.4,3.3,9.6,4.7c6.2,2.6,9.7,8.6,15.3,11.9c0,0-0.1-0.1-0.1-0.1c-0.3,0.6,0,1.2,0.4,1c0.4-0.2,0.5-1,0.7-1.6
		C518.5,19.7,518.8,19.6,519,19.4z"/>
</g>
<g id="Layer_5" class="st0">
	<path class="st1" d="M157.2,0l139.8,0c3.9,0,7.1,3.2,7.1,7.1v179.5c0,3.9-3.2,7.1-7.1,7.1H74c-3.9,0-7.1-3.2-7.1-7.1L121,17.9
		C127.4-1.5,153.3,0,157.2,0z"/>
	<path class="st1" d="M482.8,0L343.1,0c-3.9,0-7.1,3.2-7.1,7.1v179.5c0,3.9,3.2,7.1,7.1,7.1h223c3.9,0,7.1-3.2,7.1-7.1L519,17.9
		C512.6-1.5,486.7,0,482.8,0z"/>
	<path class="st1" d="M535.6,512H105.4c-23.4,0-42.5-19.1-42.5-42.5V234.2c0-3.9,3.2-7.1,7.1-7.1h501.1c3.9,0,7.1,3.2,7.1,7.1v235.3
		C578.2,492.9,559,512,535.6,512z"/>
</g>
<g id="Layer_12" class="st0">
	<path class="st1" d="M157.2,0l139.8,0c3.9,0,7.1,3.2,7.1,7.1v179.5c0,3.9-3.2,7.1-7.1,7.1H74c-3.9,0-7.1-3.2-7.1-7.1L121,17.9
		C127.4-1.5,153.3,0,157.2,0z"/>
	<path class="st1" d="M535.6,512H105.4c-23.4,0-42.5-19.1-42.5-42.5V234.2c0-3.9,3.2-7.1,7.1-7.1h501.1c3.9,0,7.1,3.2,7.1,7.1v235.3
		C578.2,492.9,559,512,535.6,512z"/>
	<path class="st1" d="M438.3,92.2c0-38.7,20-72.6,50.3-92.1c-2.8-0.1-4.9,0-5.8,0L343.1,0c-3.9,0-7.1,3.2-7.1,7.1v179.5
		c0,3.9,3.2,7.1,7.1,7.1h163.5C466.5,177.3,438.3,138.1,438.3,92.2z"/>
	<g class="st1">
		<path class="st4" d="M596.9,77.3h-34.2V43.1c0-2.5-2-4.5-4.5-4.5h-20.8c-2.5,0-4.5,2-4.5,4.5v34.2h-34.2c-2.5,0-4.5,2-4.5,4.5
			v20.8c0,2.5,2,4.5,4.5,4.5H533v34.2c0,2.5,2,4.5,4.5,4.5h20.8c2.5,0,4.5-2,4.5-4.5v-34.2h34.2c2.5,0,4.5-2,4.5-4.5V81.8
			C601.3,79.3,599.3,77.3,596.9,77.3z"/>
		<path d="M547.8,0c-50.9,0-92.2,41.3-92.2,92.2s41.3,92.2,92.2,92.2S640,143.1,640,92.2S598.7,0,547.8,0z M601.3,102.6
			c0,2.5-2,4.5-4.5,4.5h-34.2v34.2c0,2.5-2,4.5-4.5,4.5h-20.8c-2.5,0-4.5-2-4.5-4.5v-34.2h-34.2c-2.5,0-4.5-2-4.5-4.5V81.8
			c0-2.5,2-4.5,4.5-4.5H533V43.1c0-2.5,2-4.5,4.5-4.5h20.8c2.5,0,4.5,2,4.5,4.5v34.2h34.2c2.5,0,4.5,2,4.5,4.5V102.6z"/>
	</g>
</g>
<g id="Layer_13" class="st0">
	<g class="st1">
		<path d="M323,556.3c-118.5,0-237,0-355.5,0.1c-3.7,0-4.6-0.8-4.6-4.6c0.1-197,0.1-394,0-591c0-3.7,0.8-4.6,4.6-4.6
			c237,0.1,474,0.1,711,0c3.7,0,4.6,0.8,4.6,4.6c-0.1,197-0.1,394,0,591c0,3.7-0.8,4.6-4.6,4.6C560,556.3,441.5,556.3,323,556.3z
			 M288.2,256.4L288.2,256.4c25.3,0,50.5-0.1,75.8-0.1c0.3,2,0.6,3.9,3.4,3.7c2.1-0.1,4.4,0.3,4.6-2.8c2.1-0.8,8.2,4.8,5.6-3.7
			c-0.3-1,1.2-3.9,4.2-2.5c2.3,1.1,3.5,0,3.1-2.6c-0.2-1.1-0.6-2.2-0.9-3.3c3.2-0.2,2.7-2.5,2.9-4.7c0.2-2.8-1.7-3.1-3.8-3.4
			c0-47.3,0-94.6,0-141.8c2-0.3,3.9-0.6,3.8-3.4c-0.1-2.1,0.3-4.5-2.9-4.7c-0.7-2.1,4.9-8.3-3.7-5.5c-1.2,0.4-3.6-1.5-2.4-4.3
			c1-2.4-0.1-3.6-2.6-3c-1.1,0.2-2.1,1.1-3.3,0.8c-0.2-3.2-2.5-2.7-4.6-2.8c-2.8-0.2-3.1,1.7-3.4,3.7c-21,0-42,0.1-63,0.1
			c-61.3,0-122.6-0.1-183.9-0.1c-0.3-2-0.6-3.9-3.4-3.7c-2.1,0.1-4.4-0.3-4.7,2.9c-9,0.1-18,0.4-27,0.2c-5.9-0.1-12,1.2-17.8-1
			c-1-0.4-2-0.1-2.6,0.8c-0.6,0.8-0.5,1.6,0.2,2.2c1,1,2,0.5,3.2,0.3c9.3-1.7,18.7-0.5,28.3-0.2c-35.8,10.3-58.7,33.3-69.1,69
			c-0.2-9.6-1.5-19,0.2-28.3c0.3-1.4,0.8-2.6-0.7-3.5c-0.5-0.3-1.4-0.2-1.8,0.1c-1.4,1-1,2.2-0.4,3.5c0.4,0.9,0.6,1.9,0.6,2.9
			c0,13.6-0.1,27.3-0.2,40.9c-2.4,0.1-2.9,1.6-2.9,3.7c0,2.1,0.1,4.1,2.9,4.2c0.4,14.3,0.6,28.6-0.2,42.9c-0.1,1-0.3,1.9,0.5,2.8
			c0.4,0.4,0.8,0.5,1.3,0.1c0.9-0.7,0.9-1.6,0.7-2.7c-1.2-6.1-0.3-12.3-0.5-18.4c-0.1-3,0-5.9,0-8.9c0.4-0.1,0.9-0.1,1.3-0.2
			c9,34.8,31.4,56.8,65,68.4c-8.8,0.7-17.3,1.2-25.6-0.5c-1.3-0.3-2.5-1-3.6,0.3c-0.6,0.7-0.5,1.5,0.1,2.3c1.1,1.3,2.3,0.7,3.6,0.2
			c1.9-0.8,3.9-0.5,5.9-0.5c12.2,0.1,24.3,0.2,36.5,0.3c0.3,0.3,0.7,0.6,1,0.9c1,3.6-0.9,6.4-2.5,9.3
			C80.8,309.3,56.1,352,31.5,394.7c-0.5,0.2-1,0.5-1.5,0.7c-2.9-0.6-5-0.2-4.8,3.5c0.4,8-4.5,13.5-9.1,19.1c-0.9,1-2.2,1.7-1.3,3.3
			c0.4,0.8,1.2,1.2,2.1,1c1.6-0.4,1.9-1.5,2-3c0.3-3.3,2.1-5.7,4.7-8c-2.4,14.8,1.1,27.8,10.3,39.4c-0.4,0.4-0.9,0.7-1.3,1.1
			c-2.7-1.3-5.3-2.5-6.9-5.3c-0.5-0.9-1.6-1.3-2.6-0.6c-0.5,0.3-0.9,1-1,1.5c-0.2,1.1,0.5,2.2,1.4,2.3c6.9,0.6,11.5,6.1,17.6,8.3
			c0.4,0.7,0.8,1.4,1.1,2.1c-1,4.6,2.4,4.3,4.8,3.7c3.1-0.8,5.4,0.3,7.9,1.8c12.8,7.4,25.6,14.7,38.5,22.1c0.2,0.5,0.5,1,0.7,1.4
			c-0.3,2.4-0.6,5.2,2.9,4.7c5.4-0.8,10.2,1.7,15.4,2.1c14,1.1,26.2-1.9,37.1-10.6c0.3,0.4,0.7,0.9,1,1.3c-0.9,3.3-4.3,5.4-3.6,9.5
			c3.2-5.8,6.4-11.6,9.5-17.4c0.8-0.6,1.7-1.1,2.5-1.7c3,0.8,4.5-0.9,3.7-3.4c-1.5-4.9,1.2-8.3,3.3-12
			c37.6-65.1,75.2-130.2,112.7-195.3c1-1.7,2.4-3.3,2.5-5.4c0.3-0.2,0.6-0.5,0.9-0.7C284.4,259.6,288.5,261.4,288.2,256.4z
			 M611.1,376.1c3,4.8,6.8,5.2,10.4,0.9c0.7-0.9,1.5-1.6,2.3-2.3c4.3-3.6,3.9-7.4-1-10.4c0-2,0-4.1,0-6.1c4.9-2.9,5.3-6.8,1-10.4
			c-0.9-0.7-1.6-1.4-2.3-2.3c-3.6-4.3-7.4-3.9-10.4,0.9c-8.5-0.1-17-0.2-25.4-0.2c-43.6,0-87.1,0.1-130.7,0.1
			c-3-4.8-6.8-5.2-10.4-0.9c-0.7,0.9-1.4,1.6-2.3,2.3c-4.3,3.6-3.9,7.4,0.9,10.4c0,2,0,4.1,0,6.1c-4.8,3-5.2,6.8-0.9,10.4
			c0.9,0.7,1.6,1.5,2.3,2.3c3.6,4.3,7.4,3.9,10.4-0.9c30.6,0,61.2,0.1,91.8,0.1C568.2,376.3,589.6,376.2,611.1,376.1z M611.1,46.1
			c3,4.8,6.8,5.2,10.4,0.9c0.7-0.9,1.5-1.6,2.3-2.3c4.3-3.6,3.9-7.4-1-10.4c0-2,0-4.1,0-6.1c4.9-2.9,5.3-6.8,1-10.4
			c-0.9-0.7-1.6-1.4-2.3-2.3c-3.6-4.3-7.4-3.9-10.4,0.9c-8.5-0.1-17-0.2-25.4-0.2c-43.6,0-87.1,0.1-130.7,0.1
			c-3-4.8-6.8-5.2-10.4-0.9c-0.7,0.9-1.4,1.6-2.3,2.3c-4.3,3.6-3.9,7.4,0.9,10.4c0,2,0,4.1,0,6.1c-4.8,3-5.2,6.8-0.9,10.4
			c0.9,0.7,1.6,1.5,2.3,2.3c3.6,4.3,7.4,3.9,10.4-0.9c30.6,0,61.2,0.1,91.8,0.1C568.2,46.3,589.6,46.2,611.1,46.1z M611.1,316.1
			c3,4.8,6.8,5.2,10.4,0.9c0.7-0.9,1.5-1.6,2.3-2.3c4.3-3.6,3.9-7.4-1-10.4c0-2,0-4.1,0-6.1c4.9-2.9,5.3-6.8,1-10.4
			c-0.9-0.7-1.6-1.4-2.3-2.3c-3.6-4.3-7.4-3.9-10.4,0.9c-8.5-0.1-17-0.2-25.4-0.2c-43.6,0-87.1,0.1-130.7,0.1
			c-3-4.8-6.8-5.2-10.4-0.9c-0.7,0.9-1.4,1.6-2.3,2.3c-4.3,3.6-3.9,7.4,0.9,10.4c0,2,0,4.1,0,6.1c-4.8,3-5.2,6.8-0.9,10.4
			c0.9,0.7,1.6,1.5,2.3,2.3c3.6,4.3,7.4,3.9,10.4-0.9c30.6,0,61.2,0.1,91.8,0.1C568.2,316.3,589.6,316.2,611.1,316.1z M293.1,402.2
			c0-30.8-0.1-61.6,0-92.4c0-1.6-0.8-3.7,1.8-4.5c3-0.9,2.1-3.6,1.7-5.5c-0.5-2.3-2.8-2-4.6-1.8c-2.7,0.2-2.9,2.2-2.8,4.4
			c0.1,2.4,0.8,4.5-0.6,7.1c-23.2,39.8-46.2,79.8-69.2,119.7c-1,1.8-2,3.4-4.5,3.3c-2.3-0.1-3.4,1.1-3.4,3.3c0,1.7-0.1,3.7,1.9,4.1
			c1.8,0.3,4.4,1.2,5.3-1.2c0.9-2.8,2.9-2.3,4.8-2.3c11.8,0,23.6,0,35.5,0.1c0.3,2,0.6,3.9,3.4,3.7c2.1-0.1,4.5,0.3,4.6-2.9
			c3.8-0.2,7.6-0.9,11.3,0.7c1.2,0.5,2.3,0.5,3.1-0.6c0.6-0.8,0.5-1.6-0.2-2.2c-1-1-2-0.8-3.2-0.3c-1.1,0.5-2.3,1.3-3.9-0.4
			c8-3.4,13.1-9.6,17.4-17.2c1,2.2,0.3,3.4-0.2,4.6c-0.6,1.2-0.4,2.3,0.9,3c0.5,0.2,1.3,0.2,1.8-0.1c1.2-0.7,1.2-1.9,0.7-3.1
			c-1.7-3.7-0.9-7.5-0.7-11.3c3.2-0.2,2.7-2.5,2.9-4.7C297,402.8,295.1,402.5,293.1,402.2z M611.1,496.1c3,4.8,6.8,5.2,10.4,0.9
			c0.7-0.9,1.5-1.6,2.3-2.3c4.3-3.6,3.9-7.4-1-10.4c0-12,0-24.1,0-36.1c4.9-2.9,5.3-6.8,1-10.4c-0.9-0.7-1.6-1.4-2.3-2.3
			c-3.6-4.3-7.4-3.9-10.4,0.9c-8.5-0.1-17-0.2-25.4-0.2c-43.6,0-87.1,0.1-130.7,0.1c-3-4.8-6.8-5.2-10.4-0.9
			c-0.7,0.9-1.4,1.6-2.3,2.3c-4.3,3.6-3.9,7.4,0.9,10.4c0,12,0,24.1,0,36.1c-4.8,3-5.2,6.8-0.9,10.4c0.9,0.7,1.6,1.5,2.3,2.3
			c3.6,4.3,7.4,3.9,10.4-0.9c30.6,0,61.2,0.1,91.8,0.1C568.2,496.3,589.6,496.2,611.1,496.1z M611.1,136.1c3,4.8,6.8,5.2,10.4,0.9
			c0.7-0.9,1.5-1.6,2.3-2.3c4.3-3.6,3.9-7.4-1-10.4c0-12,0-24.1,0-36.1c4.9-2.9,5.3-6.8,1-10.4c-0.9-0.7-1.6-1.4-2.3-2.3
			c-3.6-4.3-7.4-3.9-10.4,0.9c-8.5-0.1-17-0.2-25.4-0.2c-43.6,0-87.1,0.1-130.7,0.1c-3-4.8-6.8-5.2-10.4-0.9
			c-0.7,0.9-1.4,1.6-2.3,2.3c-4.3,3.6-3.9,7.4,0.9,10.4c0,12,0,24.1,0,36.1c-4.8,3-5.2,6.8-0.9,10.4c0.9,0.7,1.6,1.5,2.3,2.3
			c3.6,4.3,7.4,3.9,10.4-0.9c30.6,0,61.2,0.1,91.8,0.1C568.2,136.3,589.6,136.2,611.1,136.1z M622.8,214.3c0-12,0-24.1,0-36.1
			c4.9-2.9,5.3-6.8,1-10.4c-0.9-0.7-1.6-1.4-2.3-2.3c-3.6-4.3-7.4-3.9-10.4,0.9c-8.5-0.1-17-0.2-25.4-0.2
			c-43.6,0-87.1,0.1-130.7,0.1c-3-4.8-6.8-5.2-10.4-0.9c-0.7,0.9-1.4,1.6-2.3,2.3c-4.3,3.6-3.9,7.4,0.9,10.4c0,12,0,24.1,0,36.1
			c-4.8,3-5.2,6.8-0.9,10.4c0.9,0.7,1.6,1.5,2.3,2.3c3.6,4.3,7.4,3.9,10.4-0.9c30.6,0,61.2,0.1,91.8,0.1c21.4,0,42.9-0.1,64.3-0.2
			c3,4.8,6.8,5.2,10.4,0.9c0.7-0.9,1.5-1.6,2.3-2.3C628.1,221.1,627.7,217.3,622.8,214.3z M109.9,497.7c3.2,2.7,6.1,3.5,7.4,6.2
			c0.4,0.9,1.5,1.3,2.6,0.7c0.8-0.4,1.2-1.1,1.1-2c-0.1-1.1-0.9-2.1-1.9-2C116.2,501,114.1,498.7,109.9,497.7z"/>
		<path class="st5" d="M281.1,261c-0.1,2.1-1.5,3.7-2.5,5.4c-37.6,65.1-75.1,130.2-112.7,195.3c-2.1,3.7-4.7,7.1-3.3,12
			c0.8,2.5-0.7,4.2-3.7,3.4c0.2-1,0.4-1.9,0.5-2.9c0.2-1.5,0.3-3.2-1.7-3.4c-2.2-0.2-2.5,1.7-2.6,3.4c-0.1,1.7,0.5,3.2,1.3,4.6
			c-3.2,5.8-6.4,11.6-9.5,17.4c-0.7-4.1,2.8-6.2,3.6-9.5c0.4-1,0.5-1.8-1-1.3c-10.9,8.7-23.1,11.7-37.1,10.6
			c-5.2-0.4-10-2.9-15.4-2.1c-3.5,0.5-3.3-2.3-2.9-4.7c0.6,0.3,1.2,0.5,1.8,0.8c1.4,0.6,2.7,2.3,4.4,0.8c0.8-0.7,0.7-1.9,0.2-2.7
			c-1-1.6-2.7-1.8-4.4-1.4c-0.9,0.2-1.8,0.8-2.7,1.1c-12.8-7.4-25.7-14.7-38.5-22.1c-2.5-1.4-4.8-2.5-7.9-1.8
			c-2.4,0.6-5.8,0.9-4.8-3.7c0.6,0.1,1.3,0.2,1.9,0.3c1.4,0.2,3,0.8,4.1-0.7c0.5-0.7,0.4-1.6-0.2-2.3c-1.1-1.3-2.6-1.3-4.1-1.1
			c-1.2,0.1-2.1,0.8-2.9,1.7c-6.1-2.2-10.7-7.8-17.6-8.3c-0.9-0.1-1.6-1.2-1.4-2.3c0.1-0.6,0.5-1.2,1-1.5c1-0.7,2.1-0.3,2.6,0.6
			c1.6,2.8,4.2,4,6.9,5.3c0.4,0.2,0.9,0.4,1.3,0.6c0.4,0.1,0.8,0.3,1.2,0.4c-0.1-0.4-0.3-0.8-0.4-1.2c-0.3-0.3-0.5-0.6-0.8-0.9
			c-9.2-11.5-12.7-24.6-10.3-39.4c-2.5,2.3-4.4,4.7-4.7,8c-0.1,1.5-0.4,2.6-2,3c-0.9,0.2-1.7-0.1-2.1-1c-0.8-1.6,0.5-2.2,1.3-3.3
			c4.6-5.6,9.5-11.1,9.1-19.1c-0.2-3.7,1.9-4.1,4.8-3.5c-0.3,0.6-0.5,1.2-0.8,1.8c-0.6,1.4-2.3,2.7-0.7,4.4c0.7,0.8,1.9,0.7,2.7,0.2
			c1.6-1,1.8-2.7,1.4-4.4c-0.2-0.9-0.8-1.8-1.1-2.7c24.6-42.7,49.3-85.4,73.9-128.1c1.7-2.9,3.5-5.7,2.5-9.3c2,1,3.7,4.2,6.3,1.3
			c1.4-1.6,1.2-3.8-0.5-5.3c-2.3-2.2-5.2-0.8-6.8,3.1c-12.2-0.1-24.3-0.2-36.5-0.3c-2,0-4-0.3-5.9,0.5c-1.3,0.6-2.5,1.1-3.6-0.2
			c-0.6-0.7-0.7-1.5-0.1-2.3c1.1-1.3,2.2-0.6,3.6-0.3c8.3,1.7,16.8,1.2,25.6,0.5c-33.6-11.6-56-33.6-65-68.4
			c-0.4,0.1-0.9,0.1-1.3,0.2c0,3-0.1,5.9,0,8.9c0.2,6.1-0.6,12.3,0.5,18.4c0.2,1.1,0.2,2-0.7,2.7c-0.5,0.4-0.9,0.3-1.3-0.1
			c-0.8-0.8-0.5-1.8-0.5-2.8c0.8-14.3,0.5-28.6,0.2-42.9c0.1-0.1,0.3-0.3,0.4-0.4c2.9,0.5,4.4-0.7,4.4-3.6c0-2.9-1.5-4.1-4.4-3.6
			c-0.1-0.1-0.3-0.3-0.4-0.4c0.1-13.6,0.1-27.3,0.2-40.9c0-1-0.2-2-0.6-2.9c-0.6-1.3-0.9-2.6,0.4-3.5c0.4-0.3,1.3-0.3,1.8-0.1
			c1.5,0.8,1,2.1,0.7,3.5c-1.8,9.3-0.5,18.7-0.2,28.3c10.4-35.7,33.3-58.7,69.1-69c-9.6-0.2-19-1.5-28.3,0.2
			c-1.2,0.2-2.2,0.7-3.2-0.3c-0.7-0.7-0.8-1.5-0.2-2.2c0.7-0.9,1.6-1.2,2.6-0.8c5.8,2.2,11.9,0.9,17.8,1c9,0.2,18-0.1,27-0.2
			c0.1,0.1,0.3,0.3,0.4,0.4c-0.5,2.6,0.5,4.2,3.2,4.4c2.5,0.2,4.1-0.8,4.1-3.6l0.3-0.3c61.3,0,122.6,0.1,183.9,0.1c21,0,42,0,63-0.1
			l0.3,0.3c0,2.8,1.6,3.8,4.2,3.6c2.8-0.2,3.6-1.9,3.2-4.4c0.1-0.1,0.3-0.3,0.4-0.4c1.2,0.3,2.2-0.6,3.3-0.8c2.5-0.5,3.6,0.7,2.6,3
			c-1.2,2.8,1.2,4.7,2.4,4.3c8.5-2.8,3,3.4,3.7,5.5c-0.1,0.1-0.3,0.3-0.4,0.4c-2.5-0.4-4.2,0.4-4.4,3.2c-0.2,2.5,0.8,4.1,3.6,4.2
			l0.3,0.3c0,47.3,0,94.6,0,141.8l-0.3,0.3c-2.8,0-3.8,1.6-3.6,4.2c0.2,2.8,1.9,3.6,4.4,3.2c0.1,0.1,0.3,0.3,0.4,0.4
			c0.3,1.1,0.7,2.2,0.9,3.3c0.4,2.6-0.8,3.7-3.1,2.6c-3-1.4-4.5,1.5-4.2,2.5c2.6,8.5-3.5,2.9-5.6,3.7c-0.1-0.1-0.3-0.3-0.4-0.4
			c0.4-2.5-0.4-4.2-3.2-4.4c-2.5-0.2-4.1,0.8-4.2,3.6l-0.3,0.3c-25.3,0-50.5,0.1-75.8,0.1c-0.2-2.4-1.3-4.1-4-3.8
			c-2.7,0.2-3.3,2.3-3.3,4.6C280.9,258.5,281.1,259.7,281.1,261z M95.9,254.8c-0.3-0.1-0.6-0.4-0.8-0.3c-0.5,0.1-1.5-0.4-1.2,0.5
			C94,255.4,95.2,255.4,95.9,254.8z"/>
		<path class="st5" d="M622.8,178.2c0,12,0,24.1,0,36.1c-3.9,3.9-7.8,7.8-11.8,11.8c-21.4,0.1-42.9,0.2-64.3,0.2
			c-30.6,0-61.2-0.1-91.8-0.1c-3.9-3.9-7.9-7.9-11.8-11.8c0-12,0-24.1,0-36.1c3.9-3.9,7.9-7.9,11.8-11.8c43.6,0,87.1-0.1,130.7-0.1
			c8.5,0,17,0.1,25.4,0.2C615,170.4,618.9,174.3,622.8,178.2z"/>
		<path class="st5" d="M443.2,124.3c0-12,0-24.1,0-36.1c3.9-3.9,7.9-7.9,11.8-11.8c43.6,0,87.1-0.1,130.7-0.1c8.5,0,17,0.1,25.4,0.2
			c3.9,3.9,7.8,7.8,11.8,11.8c0,12,0,24.1,0,36.1c-3.9,3.9-7.8,7.8-11.8,11.8c-21.4,0.1-42.9,0.2-64.3,0.2
			c-30.6,0-61.2-0.1-91.8-0.1C451,132.2,447.1,128.3,443.2,124.3z"/>
		<path class="st5" d="M443.2,484.3c0-12,0-24.1,0-36.1c3.9-3.9,7.9-7.9,11.8-11.8c43.6,0,87.1-0.1,130.7-0.1c8.5,0,17,0.1,25.4,0.2
			c3.9,3.9,7.8,7.8,11.8,11.8c0,12,0,24.1,0,36.1c-3.9,3.9-7.8,7.8-11.8,11.8c-21.4,0.1-42.9,0.2-64.3,0.2
			c-30.6,0-61.2-0.1-91.8-0.1C451,492.2,447.1,488.3,443.2,484.3z"/>
		<path class="st5" d="M258.9,436.4c-11.8,0-23.6-0.1-35.5-0.1c-1.9,0-3.8-0.5-4.8,2.3c-0.8,2.4-3.5,1.6-5.3,1.2
			c-2.1-0.4-2-2.4-1.9-4.1c0-2.2,1.1-3.5,3.4-3.3c2.4,0.1,3.4-1.5,4.5-3.3c23-39.9,46-79.9,69.2-119.7c1.5-2.6,0.7-4.7,0.6-7.1
			c-0.1-2.1,0.1-4.2,2.8-4.4c1.8-0.1,4.1-0.5,4.6,1.8c0.4,1.9,1.3,4.5-1.7,5.5c-2.6,0.8-1.8,2.9-1.8,4.5c0,30.8,0,61.6,0,92.4
			l-0.3,0.3c-2.8,0-3.8,1.6-3.6,4.2c0.2,2.8,1.9,3.6,4.4,3.2c0.1,0.1,0.3,0.3,0.4,0.4c-0.2,3.8-1,7.6,0.7,11.3
			c0.5,1.2,0.5,2.3-0.7,3.1c-0.5,0.3-1.3,0.3-1.8,0.1c-1.2-0.6-1.4-1.7-0.9-3c0.6-1.2,1.2-2.4,0.2-4.6c-4.3,7.7-9.4,13.9-17.4,17.2
			c1.6,1.7,2.8,0.9,3.9,0.4c1.1-0.5,2.2-0.7,3.2,0.3c0.6,0.7,0.7,1.5,0.2,2.2c-0.8,1.1-1.9,1.2-3.1,0.6c-3.7-1.6-7.5-0.9-11.3-0.7
			c-0.1-0.1-0.3-0.3-0.4-0.4c0.5-2.6-0.4-4.2-3.2-4.4c-2.5-0.2-4.1,0.8-4.2,3.6L258.9,436.4z"/>
		<path class="st5" d="M454.9,286.4c43.6,0,87.1-0.1,130.7-0.1c8.5,0,17,0.1,25.4,0.2c3.9,3.9,7.8,7.8,11.8,11.8c0,2,0,4.1,0,6.1
			c-3.9,3.9-7.8,7.8-11.8,11.8c-21.4,0.1-42.9,0.2-64.3,0.2c-30.6,0-61.2-0.1-91.8-0.1c-3.9-3.9-7.9-7.9-11.8-11.8c0-2,0-4.1,0-6.1
			C447.1,294.3,451,290.4,454.9,286.4z"/>
		<path class="st5" d="M622.8,28.2c0,2,0,4.1,0,6.1c-3.9,3.9-7.8,7.8-11.8,11.8c-21.4,0.1-42.9,0.2-64.3,0.2
			c-30.6,0-61.2-0.1-91.8-0.1c-3.9-3.9-7.9-7.9-11.8-11.8c0-2,0-4.1,0-6.1c3.9-3.9,7.9-7.9,11.8-11.8c43.6,0,87.1-0.1,130.7-0.1
			c8.5,0,17,0.1,25.4,0.2C615,20.4,618.9,24.3,622.8,28.2z"/>
		<path class="st5" d="M443.2,364.3c0-2,0-4.1,0-6.1c3.9-3.9,7.9-7.9,11.8-11.8c43.6,0,87.1-0.1,130.7-0.1c8.5,0,17,0.1,25.4,0.2
			c3.9,3.9,7.8,7.8,11.8,11.8c0,2,0,4.1,0,6.1c-3.9,3.9-7.8,7.8-11.8,11.8c-21.4,0.1-42.9,0.2-64.3,0.2c-30.6,0-61.2-0.1-91.8-0.1
			C451,372.2,447.1,368.3,443.2,364.3z"/>
		<path class="st6" d="M622.8,28.2c-3.9-3.9-7.8-7.8-11.8-11.8c3-4.8,6.8-5.2,10.4-0.9c0.7,0.9,1.5,1.6,2.3,2.3
			C628.1,21.5,627.7,25.3,622.8,28.2z"/>
		<path class="st6" d="M611.1,46.1c3.9-3.9,7.8-7.8,11.8-11.8c4.9,2.9,5.3,6.8,1,10.4c-0.9,0.7-1.6,1.4-2.3,2.3
			C617.9,51.3,614.1,50.9,611.1,46.1z"/>
		<path class="st6" d="M622.8,358.2c-3.9-3.9-7.8-7.8-11.8-11.8c3-4.8,6.8-5.2,10.4-0.9c0.7,0.9,1.5,1.6,2.3,2.3
			C628.1,351.5,627.7,355.3,622.8,358.2z"/>
		<path class="st6" d="M611.1,316.1c3.9-3.9,7.8-7.8,11.8-11.8c4.9,2.9,5.3,6.8,1,10.4c-0.9,0.7-1.6,1.4-2.3,2.3
			C617.9,321.3,614.1,320.9,611.1,316.1z"/>
		<path class="st6" d="M611.1,136.1c3.9-3.9,7.8-7.8,11.8-11.8c4.9,2.9,5.3,6.8,1,10.4c-0.9,0.7-1.6,1.4-2.3,2.3
			C617.9,141.3,614.1,140.9,611.1,136.1z"/>
		<path class="st6" d="M622.8,88.2c-3.9-3.9-7.8-7.8-11.8-11.8c3-4.8,6.8-5.2,10.4-0.9c0.7,0.9,1.5,1.6,2.3,2.3
			C628.1,81.5,627.7,85.3,622.8,88.2z"/>
		<path class="st6" d="M622.8,178.2c-3.9-3.9-7.8-7.8-11.8-11.8c3-4.8,6.8-5.2,10.4-0.9c0.7,0.9,1.5,1.6,2.3,2.3
			C628.1,171.5,627.7,175.3,622.8,178.2z"/>
		<path class="st6" d="M611.1,226.1c3.9-3.9,7.8-7.8,11.8-11.8c4.9,2.9,5.3,6.8,1,10.4c-0.9,0.7-1.6,1.4-2.3,2.3
			C617.9,231.3,614.1,230.9,611.1,226.1z"/>
		<path class="st6" d="M622.8,298.2c-3.9-3.9-7.8-7.8-11.8-11.8c3-4.8,6.8-5.2,10.4-0.9c0.7,0.9,1.5,1.6,2.3,2.3
			C628.1,291.5,627.7,295.3,622.8,298.2z"/>
		<path class="st6" d="M611.1,376.1c3.9-3.9,7.8-7.8,11.8-11.8c4.9,2.9,5.3,6.8,1,10.4c-0.9,0.7-1.6,1.4-2.3,2.3
			C617.9,381.3,614.1,380.9,611.1,376.1z"/>
		<path class="st6" d="M622.8,448.2c-3.9-3.9-7.8-7.8-11.8-11.8c3-4.8,6.8-5.2,10.4-0.9c0.7,0.9,1.5,1.6,2.3,2.3
			C628.1,441.5,627.7,445.3,622.8,448.2z"/>
		<path class="st6" d="M611.1,496.1c3.9-3.9,7.8-7.8,11.8-11.8c4.9,2.9,5.3,6.8,1,10.4c-0.9,0.7-1.6,1.4-2.3,2.3
			C617.9,501.3,614.1,500.9,611.1,496.1z"/>
		<path class="st6" d="M443.2,34.3c3.9,3.9,7.9,7.9,11.8,11.8c-3,4.8-6.8,5.2-10.4,0.9c-0.7-0.9-1.4-1.6-2.3-2.3
			C438,41.2,438.4,37.3,443.2,34.3z"/>
		<path class="st6" d="M454.9,286.4c-3.9,3.9-7.9,7.9-11.8,11.8c-4.8-3-5.2-6.8-0.9-10.4c0.9-0.7,1.6-1.5,2.3-2.3
			C448.2,281.2,452,281.6,454.9,286.4z"/>
		<path class="st6" d="M454.9,346.4c-3.9,3.9-7.9,7.9-11.8,11.8c-4.8-3-5.2-6.8-0.9-10.4c0.9-0.7,1.6-1.5,2.3-2.3
			C448.2,341.2,452,341.6,454.9,346.4z"/>
		<path class="st6" d="M454.9,76.4c-3.9,3.9-7.9,7.9-11.8,11.8c-4.8-3-5.2-6.8-0.9-10.4c0.9-0.7,1.6-1.5,2.3-2.3
			C448.2,71.2,452,71.6,454.9,76.4z"/>
		<path class="st6" d="M443.2,364.3c3.9,3.9,7.9,7.9,11.8,11.8c-3,4.8-6.8,5.2-10.4,0.9c-0.7-0.9-1.4-1.6-2.3-2.3
			C438,371.2,438.4,367.3,443.2,364.3z"/>
		<path class="st6" d="M443.2,304.3c3.9,3.9,7.9,7.9,11.8,11.8c-3,4.8-6.8,5.2-10.4,0.9c-0.7-0.9-1.4-1.6-2.3-2.3
			C438,311.2,438.4,307.3,443.2,304.3z"/>
		<path class="st6" d="M454.9,436.4c-3.9,3.9-7.9,7.9-11.8,11.8c-4.8-3-5.2-6.8-0.9-10.4c0.9-0.7,1.6-1.5,2.3-2.3
			C448.2,431.2,452,431.6,454.9,436.4z"/>
		<path class="st6" d="M443.2,124.3c3.9,3.9,7.9,7.9,11.8,11.8c-3,4.8-6.8,5.2-10.4,0.9c-0.7-0.9-1.4-1.6-2.3-2.3
			C438,131.2,438.4,127.3,443.2,124.3z"/>
		<path class="st6" d="M454.9,16.4c-3.9,3.9-7.9,7.9-11.8,11.8c-4.8-3-5.2-6.8-0.9-10.4c0.9-0.7,1.6-1.5,2.3-2.3
			C448.2,11.2,452,11.6,454.9,16.4z"/>
		<path class="st6" d="M454.9,166.4c-3.9,3.9-7.9,7.9-11.8,11.8c-4.8-3-5.2-6.8-0.9-10.4c0.9-0.7,1.6-1.5,2.3-2.3
			C448.2,161.2,452,161.6,454.9,166.4z"/>
		<path class="st6" d="M443.2,484.3c3.9,3.9,7.9,7.9,11.8,11.8c-3,4.8-6.8,5.2-10.4,0.9c-0.7-0.9-1.4-1.6-2.3-2.3
			C438,491.2,438.4,487.3,443.2,484.3z"/>
		<path class="st6" d="M443.2,214.3c3.9,3.9,7.9,7.9,11.8,11.8c-3,4.8-6.8,5.2-10.4,0.9c-0.7-0.9-1.4-1.6-2.3-2.3
			C438,221.2,438.4,217.3,443.2,214.3z"/>
		<path class="st6" d="M106.9,256.4c1.7-3.9,4.6-5.3,6.8-3.1c1.6,1.6,1.9,3.8,0.5,5.3c-2.5,2.8-4.3-0.4-6.3-1.3
			C107.6,257,107.3,256.7,106.9,256.4z"/>
		<path class="st6" d="M281.1,261c-0.1-1.3-0.3-2.6-0.2-3.9c0-2.3,0.6-4.3,3.3-4.6c2.7-0.2,3.7,1.4,4,3.8l0,0
			c-2.9,0-4.7,1.7-6.2,3.9C281.7,260.6,281.4,260.8,281.1,261z"/>
		<path class="st5" d="M109.9,497.7c4.1,0.9,6.2,3.3,9.2,2.9c1-0.1,1.8,0.9,1.9,2c0.1,0.9-0.3,1.6-1.1,2c-1.1,0.6-2.1,0.2-2.6-0.7
			C116.1,501.2,113.2,500.4,109.9,497.7z"/>
		<path class="st6" d="M156.4,478.8c-0.8-1.4-1.4-2.9-1.3-4.6c0.1-1.7,0.4-3.5,2.6-3.4c2,0.1,1.9,1.9,1.7,3.4
			c-0.1,1-0.3,1.9-0.5,2.9C158.1,477.7,157.3,478.2,156.4,478.8z"/>
		<path class="st6" d="M41,458.2c0.8-0.9,1.7-1.6,2.9-1.7c1.5-0.1,3-0.2,4.1,1.1c0.6,0.7,0.7,1.5,0.2,2.3c-1.1,1.5-2.7,0.9-4.1,0.7
			c-0.7-0.1-1.3-0.2-1.9-0.3C41.8,459.5,41.4,458.9,41,458.2z"/>
		<path class="st6" d="M31.5,394.7c0.4,0.9,0.9,1.7,1.1,2.7c0.4,1.7,0.2,3.3-1.4,4.4c-0.9,0.5-2,0.7-2.7-0.2c-1.5-1.7,0.1-3,0.7-4.4
			c0.3-0.6,0.5-1.2,0.8-1.8C30.5,395.2,31,394.9,31.5,394.7z"/>
		<path class="st6" d="M93.4,487.8c0.9-0.4,1.8-0.9,2.7-1.1c1.7-0.4,3.3-0.2,4.4,1.4c0.5,0.9,0.7,2-0.2,2.7c-1.7,1.5-3-0.1-4.4-0.8
			c-0.6-0.3-1.2-0.5-1.8-0.8C93.9,488.8,93.6,488.3,93.4,487.8z"/>
		<path class="st5" d="M293.1,402.2c2,0.3,3.9,0.6,3.8,3.4c-0.1,2.1,0.3,4.5-2.9,4.7c-0.1-0.1-0.3-0.3-0.4-0.4
			c0.5-2.5-0.4-4.9-0.8-7.3L293.1,402.2z"/>
		<path class="st5" d="M384,87.3c3.2,0.2,2.7,2.5,2.9,4.7c0.2,2.8-1.7,3.1-3.8,3.4c0,0-0.3-0.3-0.3-0.3c0.4-2.4,1.3-4.8,0.8-7.3
			C383.7,87.6,383.9,87.4,384,87.3z"/>
		<path class="st5" d="M363.9,76.2c0.3-2,0.6-3.9,3.4-3.7c2.1,0.1,4.5-0.3,4.6,2.8c-0.1,0.1-0.3,0.3-0.4,0.4
			c-2.5-0.4-4.9,0.4-7.3,0.8L363.9,76.2z"/>
		<path class="st5" d="M109,75.3c0.2-3.1,2.5-2.7,4.7-2.9c2.8-0.2,3.1,1.7,3.4,3.7l-0.3,0.3c-2.4-0.4-4.8-1.2-7.3-0.8
			C109.3,75.6,109.2,75.5,109,75.3z"/>
		<path class="st5" d="M267,437.3c-0.2,3.2-2.5,2.7-4.6,2.9c-2.8,0.2-3.1-1.7-3.4-3.7c0,0,0.3-0.3,0.3-0.3c2.4,0.5,4.8,1.3,7.3,0.8
			C266.7,437,266.8,437.1,267,437.3z"/>
		<path class="st5" d="M372,257.3c-0.2,3.2-2.5,2.7-4.6,2.8c-2.8,0.2-3.1-1.7-3.4-3.7c0,0,0.3-0.3,0.3-0.3c2.4,0.5,4.8,1.3,7.3,0.8
			C371.7,257,371.8,257.1,372,257.3z"/>
		<path class="st5" d="M383.1,237.2c2,0.3,3.9,0.6,3.8,3.4c-0.1,2.1,0.3,4.5-2.9,4.7c-0.1-0.1-0.3-0.3-0.4-0.4
			c0.5-2.5-0.4-4.9-0.8-7.3L383.1,237.2z"/>
		<path class="st5" d="M22,170.2c-2.8-0.2-2.8-2.1-2.9-4.2c0-2.1,0.5-3.6,2.9-3.7c0.1,0.1,0.3,0.3,0.4,0.4c-0.5,2.4-0.5,4.8,0,7.1
			C22.3,170,22.2,170.1,22,170.2z"/>
		<path class="st5" d="M282,260.4c1.5-2.2,3.2-4,6.2-3.9C288.5,261.4,284.4,259.6,282,260.4z"/>
		<path class="st6" d="M22.4,169.8c-0.5-2.4-0.5-4.8,0-7.1c2.9-0.5,4.4,0.7,4.4,3.6C26.8,169.2,25.3,170.4,22.4,169.8z"/>
		<path class="st6" d="M371.6,256.9c-2.5,0.4-4.9-0.4-7.3-0.8c0-2.8,1.6-3.8,4.2-3.6C371.2,252.6,372,254.3,371.6,256.9z"/>
		<path class="st6" d="M383.6,87.7c0.4,2.5-0.4,4.9-0.8,7.3c-2.8,0-3.8-1.6-3.6-4.2C379.3,88.1,381.1,87.3,383.6,87.7z"/>
		<path class="st6" d="M109.4,75.7c2.5-0.5,4.9,0.3,7.3,0.8c0,2.8-1.6,3.8-4.1,3.6C109.9,79.9,108.9,78.3,109.4,75.7z"/>
		<path class="st6" d="M364.2,76.5c2.4-0.5,4.8-1.3,7.3-0.8c0.4,2.5-0.4,4.2-3.2,4.4C365.9,80.3,364.3,79.3,364.2,76.5z"/>
		<path class="st6" d="M382.8,237.5c0.4,2.4,1.3,4.8,0.8,7.3c-2.5,0.4-4.2-0.4-4.4-3.2C379,239.2,380,237.5,382.8,237.5z"/>
		<path d="M95.9,254.8c-0.7,0.6-1.9,0.6-2,0.2c-0.3-0.9,0.7-0.5,1.2-0.5C95.3,254.4,95.6,254.6,95.9,254.8z"/>
		<path d="M34.6,451.6c0.1,0.4,0.3,0.8,0.4,1.2c-0.4-0.1-0.8-0.3-1.2-0.4C34.1,452.2,34.3,451.9,34.6,451.6z"/>
		<path d="M33.8,452.4c-0.4-0.2-0.9-0.4-1.3-0.6c0.4-0.4,0.9-0.7,1.3-1.1c0.3,0.3,0.5,0.6,0.8,0.9C34.3,451.9,34.1,452.2,33.8,452.4
			z"/>
		<path d="M149.5,485.5c1.5-0.5,1.5,0.3,1,1.3C150.2,486.3,149.8,485.9,149.5,485.5z"/>
		<path class="st6" d="M292.8,402.5c0.4,2.4,1.3,4.8,0.8,7.3c-2.6,0.4-4.2-0.4-4.4-3.2C289,404.2,290,402.5,292.8,402.5z"/>
		<path class="st6" d="M266.6,436.9c-2.5,0.4-4.9-0.4-7.3-0.8c0-2.8,1.6-3.8,4.2-3.6C266.2,432.6,267,434.3,266.6,436.9z"/>
	</g>
</g>
<g id="Layer_14" class="st0">
	<path class="st1" d="M320,16.3C187.9,16.3,80.3,123.9,80.3,256S187.9,495.7,320,495.7S559.7,388.1,559.7,256S452.1,16.3,320,16.3z
		 M320,479.3C196.9,479.3,96.7,379.1,96.7,256S196.9,32.7,320,32.7S543.3,132.9,543.3,256S443.1,479.3,320,479.3z"/>
	<path class="st1" d="M320,0c-68.4,0-132.7,26.6-181,75S64,187.6,64,256s26.6,132.7,75,181c48.4,48.4,112.6,75,181,75
		s132.7-26.6,181-75c48.4-48.4,75-112.6,75-181s-26.6-132.7-75-181S388.4,0,320,0z M320,495.7C187.9,495.7,80.3,388.1,80.3,256
		S187.9,16.3,320,16.3S559.7,123.9,559.7,256S452.1,495.7,320,495.7z"/>
	<path class="st1" d="M320,32.7C196.9,32.7,96.7,132.9,96.7,256S196.9,479.3,320,479.3S543.3,379.1,543.3,256S443.1,32.7,320,32.7z
		 M158.2,384.9c-7.1-8.9-13.5-18.4-19.1-28.5h19.1V384.9z M158.2,340h-27.3c-6.4-14.3-11.2-29.4-14.2-45.1h41.4V340z M158.2,278.6
		h-43.9c-0.8-7.4-1.2-14.9-1.2-22.6s0.4-15.2,1.2-22.6h43.9V278.6z M158.2,217.1h-41.4c3-15.7,7.8-30.9,14.2-45.1h27.3V217.1z
		 M158.2,155.6H139c5.6-10,12-19.6,19.1-28.5V155.6L158.2,155.6L158.2,155.6z M420.4,75c10,5.6,19.6,12,28.5,19.1h-28.5V75z
		 M358.9,52.7c15.7,3,30.9,7.8,45.1,14.2v27.3h-45.1V52.7z M358.9,110.5H404v45.1h-45.1V110.5z M358.9,172H404v45.1h-45.1V172z
		 M297.4,50.3c7.4-0.8,14.9-1.2,22.6-1.2s15.2,0.4,22.6,1.2v43.9h-45.1V50.3z M297.4,110.5h45.1v45.1h-45.1V110.5z M297.4,172h45.1
		v45.1h-45.1V172z M297.4,233.4h45.1v45.1h-45.1V233.4z M219.6,75v19.1h-28.5C200.1,87,209.6,80.6,219.6,75z M174.5,172h45.1v45.1
		h-45.1V172z M174.5,233.4h45.1v45.1h-45.1V233.4z M219.6,437c-10-5.6-19.6-12-28.5-19.1h28.5V437z M219.6,401.5h-45.1v-45.1h45.1
		V401.5z M219.6,340h-45.1v-45.1h45.1V340z M281.1,459.3c-15.7-3-30.9-7.8-45.1-14.2v-27.3h45.1V459.3z M281.1,401.5H236v-45.1h45.1
		V401.5z M281.1,340H236v-45.1h45.1V340z M281.1,278.6H236v-45.1h45.1V278.6z M281.1,217.1H236V172h45.1V217.1z M281.1,155.6h-61.5
		h-45.1v-45.1h45.1v45.1H236v-45.1h45.1V155.6z M281.1,94.2H236V66.9c14.3-6.4,29.4-11.2,45.1-14.2V94.2z M342.6,461.7
		c-7.4,0.8-14.9,1.2-22.6,1.2s-15.2-0.4-22.6-1.2v-43.9h45.1V461.7z M342.6,401.5h-45.1v-45.1h45.1V401.5z M404,445.1
		c-14.3,6.4-29.4,11.2-45.1,14.2v-41.4H404V445.1z M404,401.5h-45.1v-45.1H404V401.5z M404,340h-45.1h-16.3h-45.1v-45.1h45.1V340
		h16.3v-45.1H404V340z M420.4,437v-19.1h28.5C439.9,425,430.4,431.4,420.4,437z M465.5,401.5h-45.1v-45.1h45.1V401.5z M465.5,340
		h-45.1v-45.1h45.1V340z M465.5,278.6h-45.1l0,0H404l0,0h-45.1v-45.1H404v45.1h16.3v-45.1h45.1V278.6z M465.5,217.1h-45.1V172h45.1
		V217.1z M465.5,155.6h-45.1v-45.1h45.1V155.6z M481.8,384.9v-28.5H501C495.4,366.4,489,375.9,481.8,384.9z M509.1,340h-27.3v-45.1
		h41.4C520.3,310.7,515.5,325.8,509.1,340z M527,256c0,7.6-0.4,15.2-1.2,22.6h-43.9v-45.1h43.9C526.6,240.8,527,248.4,527,256z
		 M481.8,127.1c7.1,8.9,13.5,18.4,19.1,28.5h-19.1V127.1z M481.8,172h27.3c6.4,14.3,11.2,29.4,14.2,45.1h-41.4V172z"/>
</g>
<g id="Layer_6" class="st0">
	
		<image style="display:inline;overflow:visible;" width="720" height="600" xlink:href="D4E676DB.jpg"  transform="matrix(1 0 0 1 -40 -43.72)">
	</image>
</g>
<g id="Layer_7" class="st0">
	<g class="st1">
		<path d="M596.9,77.3h-34.2V43.1c0-2.5-2-4.5-4.5-4.5h-20.8c-2.5,0-4.5,2-4.5,4.5v34.2h-34.2c-2.5,0-4.5,2-4.5,4.5v20.8
			c0,2.5,2,4.5,4.5,4.5H533v34.2c0,2.5,2,4.5,4.5,4.5h20.8c2.5,0,4.5-2,4.5-4.5v-34.2h34.2c2.5,0,4.5-2,4.5-4.5V81.8
			C601.3,79.3,599.3,77.3,596.9,77.3z"/>
		<path class="st7" d="M547.8,0c-50.9,0-92.2,41.3-92.2,92.2s41.3,92.2,92.2,92.2S640,143.1,640,92.2S598.7,0,547.8,0z M601.3,102.6
			c0,2.5-2,4.5-4.5,4.5h-34.2v34.2c0,2.5-2,4.5-4.5,4.5h-20.8c-2.5,0-4.5-2-4.5-4.5v-34.2h-34.2c-2.5,0-4.5-2-4.5-4.5V81.8
			c0-2.5,2-4.5,4.5-4.5H533V43.1c0-2.5,2-4.5,4.5-4.5h20.8c2.5,0,4.5,2,4.5,4.5v34.2h34.2c2.5,0,4.5,2,4.5,4.5V102.6z"/>
	</g>
</g>
<g id="Layer_3" class="st0">
	<path class="st1" d="M217.7,383.8H104.2c-3.9,0-7.1-3.2-7.1-7.1V262.2c0-3.9,3.2-7.1,7.1-7.1h113.5c3.9,0,7.1,3.2,7.1,7.1v114.4
		C224.8,380.6,221.6,383.8,217.7,383.8z"/>
	<path class="st1" d="M377.7,383.8H264.2c-3.9,0-7.1-3.2-7.1-7.1V262.2c0-3.9,3.2-7.1,7.1-7.1h113.5c3.9,0,7.1,3.2,7.1,7.1v114.4
		C384.8,380.6,381.6,383.8,377.7,383.8z"/>
	<path class="st1" d="M477.7,128.6H364.2c-3.9,0-7.1-3.2-7.1-7.1V7.1c0-3.9,3.2-7.1,7.1-7.1h113.5c3.9,0,7.1,3.2,7.1,7.1v114.4
		C484.8,125.4,481.6,128.6,477.7,128.6z"/>
	<path class="st1" d="M632.9,0.6h-53.5c-3.9,0-7.1,3.2-7.1,7.1v152.2H67.7V7.7c0-3.9-3.2-7.1-7.1-7.1H7.1C3.2,0.6,0,3.8,0,7.7v497.2
		c0,3.9,3.2,7.1,7.1,7.1h53.5c3.9,0,7.1-3.2,7.1-7.1v-22.8h504.7v22.8c0,3.9,3.2,7.1,7.1,7.1h53.5c3.9,0,7.1-3.2,7.1-7.1V7.7
		C640,3.8,636.8,0.6,632.9,0.6z M67.7,414.4V227.6h504.7v186.9H67.7z"/>
</g>
<g id="Layer_10" class="st0">
	<path class="st8" d="M67.7,414.4h504.7V227.6H67.7V414.4z M257.1,262.2c0-3.9,3.2-7.1,7.1-7.1h113.5c3.9,0,7.1,3.2,7.1,7.1v114.4
		c0,3.9-3.2,7.1-7.1,7.1H264.2c-3.9,0-7.1-3.2-7.1-7.1V262.2z M97.1,262.2c0-3.9,3.2-7.1,7.1-7.1h113.5c3.9,0,7.1,3.2,7.1,7.1v114.4
		c0,3.9-3.2,7.1-7.1,7.1H104.2c-3.9,0-7.1-3.2-7.1-7.1V262.2z"/>
	<path class="st1" d="M104.2,383.8h113.5c3.9,0,7.1-3.2,7.1-7.1V262.2c0-3.9-3.2-7.1-7.1-7.1H104.2c-3.9,0-7.1,3.2-7.1,7.1v114.4
		C97.1,380.6,100.3,383.8,104.2,383.8z"/>
	<path class="st1" d="M264.2,383.8h113.5c3.9,0,7.1-3.2,7.1-7.1V262.2c0-3.9-3.2-7.1-7.1-7.1H264.2c-3.9,0-7.1,3.2-7.1,7.1v114.4
		C257.1,380.6,260.3,383.8,264.2,383.8z"/>
	<path class="st1" d="M483.8,3.4c-1.3-2-3.5-3.4-6-3.4H364.2c-3.9,0-7.1,3.2-7.1,7.1v114.4c0,3.9,3.2,7.1,7.1,7.1h80.3
		c-4-11.4-6.2-23.6-6.2-36.4C438.3,55.6,456.2,23.3,483.8,3.4z"/>
	<path class="st1" d="M547.8,201.7c-34.9,0-66-16.3-86.1-41.8H67.7V7.7c0-3.9-3.2-7.1-7.1-7.1H7.1C3.2,0.6,0,3.8,0,7.7v497.2
		c0,3.9,3.2,7.1,7.1,7.1h53.5c3.9,0,7.1-3.2,7.1-7.1v-22.8h504.7v22.8c0,3.9,3.2,7.1,7.1,7.1h53.5c3.9,0,7.1-3.2,7.1-7.1V151.4
		C620.5,181.6,586.5,201.7,547.8,201.7z M572.3,414.4H67.7V227.6h504.7V414.4z"/>
	<g class="st1">
		<path class="st4" d="M596.9,77.3h-34.2V43.1c0-2.5-2-4.5-4.5-4.5h-20.8c-2.5,0-4.5,2-4.5,4.5v34.2h-34.2c-2.5,0-4.5,2-4.5,4.5
			v20.8c0,2.5,2,4.5,4.5,4.5H533v34.2c0,2.5,2,4.5,4.5,4.5h20.8c2.5,0,4.5-2,4.5-4.5v-34.2h34.2c2.5,0,4.5-2,4.5-4.5V81.8
			C601.3,79.3,599.3,77.3,596.9,77.3z"/>
		<path d="M547.8,0c-50.9,0-92.2,41.3-92.2,92.2s41.3,92.2,92.2,92.2S640,143.1,640,92.2S598.7,0,547.8,0z M601.3,102.6
			c0,2.5-2,4.5-4.5,4.5h-34.2v34.2c0,2.5-2,4.5-4.5,4.5h-20.8c-2.5,0-4.5-2-4.5-4.5v-34.2h-34.2c-2.5,0-4.5-2-4.5-4.5V81.8
			c0-2.5,2-4.5,4.5-4.5H533V43.1c0-2.5,2-4.5,4.5-4.5h20.8c2.5,0,4.5,2,4.5,4.5v34.2h34.2c2.5,0,4.5,2,4.5,4.5V102.6z"/>
	</g>
</g>
<g id="Layer_11" class="st0">
	<path class="st9" d="M547.8-17.3c-60.5,0-109.5,49-109.5,109.5s49,109.5,109.5,109.5s109.5-49,109.5-109.5
		c0-29.1-11.4-55.6-29.9-75.2C607.5-4.1,579.2-17.3,547.8-17.3z"/>
</g>
<g id="Layer_15">
	<path class="st10" d="M497.8,364.9H142.2V151.5h313.5c-6.9-10.7-12-22.7-14.8-35.6H133.3c-14.7,0-26.7,11.9-26.7,26.7v231.1
		c0,14.7,11.9,26.7,26.7,26.7h373.3c14.7,0,26.7-11.9,26.7-26.7v-173c-12.7-1.7-24.6-5.5-35.6-11.1V364.9z"/>
	<path d="M640,204.9v-53.5c-19.5,30.3-53.5,50.4-92.2,50.4c-4.9,0-9.8-0.3-14.5-1v173c0,14.7-11.9,26.7-26.7,26.7H133.3
		c-14.7,0-26.7-11.9-26.7-26.7V142.6c0-14.7,11.9-26.7,26.7-26.7h307.6c-1.7-7.7-2.6-15.6-2.6-23.8c0-17,3.9-33,10.7-47.3H53.3
		C23.9,44.9,0,68.7,0,98.2v106.7c29.5,0,53.3,23.9,53.3,53.3S29.5,311.5,0,311.5v106.7c0,29.5,23.9,53.3,53.3,53.3h533.3
		c29.5,0,53.3-23.9,53.3-53.3V311.5c-29.5,0-53.3-23.9-53.3-53.3S610.5,204.9,640,204.9z"/>
	<path d="M142.2,364.9h355.6V189.6c-17.1-8.8-31.6-22-42-38.1H142.2V364.9z"/>
	<g>
		<path class="st4" d="M596.9,77.3h-34.2V43.1c0-2.5-2-4.5-4.5-4.5h-20.8c-2.5,0-4.5,2-4.5,4.5v34.2h-34.2c-2.5,0-4.5,2-4.5,4.5
			v20.8c0,2.5,2,4.5,4.5,4.5H533v34.2c0,2.5,2,4.5,4.5,4.5h20.8c2.5,0,4.5-2,4.5-4.5v-34.2h34.2c2.5,0,4.5-2,4.5-4.5V81.8
			C601.3,79.3,599.3,77.3,596.9,77.3z"/>
		<path d="M547.8,0c-50.9,0-92.2,41.3-92.2,92.2s41.3,92.2,92.2,92.2S640,143.1,640,92.2S598.7,0,547.8,0z M601.3,102.6
			c0,2.5-2,4.5-4.5,4.5h-34.2v34.2c0,2.5-2,4.5-4.5,4.5h-20.8c-2.5,0-4.5-2-4.5-4.5v-34.2h-34.2c-2.5,0-4.5-2-4.5-4.5V81.8
			c0-2.5,2-4.5,4.5-4.5H533V43.1c0-2.5,2-4.5,4.5-4.5h20.8c2.5,0,4.5,2,4.5,4.5v34.2h34.2c2.5,0,4.5,2,4.5,4.5V102.6z"/>
	</g>
</g>
<g id="Layer_16" class="st0">
	<rect class="st11" width="640" height="512"/>
</g>
<g id="Layer_9" class="st0">
	<path class="st9" d="M547.8-17.3c-60.5,0-109.5,49-109.5,109.5s49,109.5,109.5,109.5s109.5-49,109.5-109.5
		c0-29.1-11.4-55.6-29.9-75.2C607.5-4.1,579.2-17.3,547.8-17.3z"/>
	<g class="st1">
		<path class="st4" d="M596.9,77.3h-34.2V43.1c0-2.5-2-4.5-4.5-4.5h-20.8c-2.5,0-4.5,2-4.5,4.5v34.2h-34.2c-2.5,0-4.5,2-4.5,4.5
			v20.8c0,2.5,2,4.5,4.5,4.5H533v34.2c0,2.5,2,4.5,4.5,4.5h20.8c2.5,0,4.5-2,4.5-4.5v-34.2h34.2c2.5,0,4.5-2,4.5-4.5V81.8
			C601.3,79.3,599.3,77.3,596.9,77.3z"/>
		<path d="M547.8,0c-50.9,0-92.2,41.3-92.2,92.2s41.3,92.2,92.2,92.2S640,143.1,640,92.2S598.7,0,547.8,0z M601.3,102.6
			c0,2.5-2,4.5-4.5,4.5h-34.2v34.2c0,2.5-2,4.5-4.5,4.5h-20.8c-2.5,0-4.5-2-4.5-4.5v-34.2h-34.2c-2.5,0-4.5-2-4.5-4.5V81.8
			c0-2.5,2-4.5,4.5-4.5H533V43.1c0-2.5,2-4.5,4.5-4.5h20.8c2.5,0,4.5,2,4.5,4.5v34.2h34.2c2.5,0,4.5,2,4.5,4.5V102.6z"/>
	</g>
</g>
</svg>
